<svg version="1.1" id="Layer_1" xmlns="http://www.w3.org/2000/svg" xmlns:xlink="http://www.w3.org/1999/xlink" x="0px" y="0px"
	 width="100%" viewBox="0 0 960 540" enable-background="new 0 0 960 540" xml:space="preserve">
<path fill="#666666" opacity="1.000000" stroke="none" 
	d="
M1.000003,436.000000 
	C1.000000,326.977997 1.000000,217.955978 1.352405,108.595406 
	C2.594752,106.906456 3.612054,105.622246 4.353772,104.194839 
	C8.851031,95.540092 14.402960,87.819786 21.956238,81.427132 
	C35.346073,70.094749 50.663273,64.047012 68.122177,64.043236 
	C342.219696,63.983891 616.317261,63.996979 890.414795,64.042458 
	C895.016602,64.043221 899.675537,64.300613 904.210388,65.037697 
	C926.793457,68.708282 944.314453,80.004898 956.017395,99.928749 
	C957.472839,102.406502 959.329346,104.648674 961.000000,107.000000 
	C961.000000,217.022018 961.000000,327.044037 960.647827,437.418640 
	C958.579468,440.354065 956.805603,442.900604 955.156128,445.525360 
	C941.721436,466.904327 922.132202,479.687592 897.219971,479.726288 
	C619.773132,480.157471 342.325378,480.023895 64.878021,479.839996 
	C58.447151,479.835724 51.776474,478.175781 45.632675,476.074585 
	C26.541595,469.545349 12.429470,457.140900 3.839048,438.679077 
	C3.329053,437.583008 1.966067,436.883850 1.000003,436.000000 
M68.974152,289.495361 
	C68.931374,289.638672 68.828827,289.795776 68.858032,289.922516 
	C68.921997,290.200043 69.052773,290.462189 68.950569,291.574646 
	C68.977341,296.040649 69.004112,300.506653 69.068939,305.767792 
	C69.285690,306.526459 69.502449,307.285126 69.566734,308.799835 
	C70.337769,313.897491 70.575386,319.662964 76.180222,321.822052 
	C80.210602,323.374634 81.164825,325.896698 81.812660,329.577545 
	C83.740616,340.531738 85.318024,351.770538 92.137535,360.989624 
	C97.847069,368.708160 104.094597,376.080963 110.638016,383.109589 
	C114.178917,386.913025 118.837395,389.675995 123.202179,393.128113 
	C123.202179,393.128113 123.505486,393.152405 123.916046,393.729950 
	C132.976929,399.985413 143.433762,402.261414 154.624008,404.640747 
	C155.108932,404.700165 155.593872,404.759583 156.692413,405.219482 
	C163.127609,406.065155 169.562820,406.910828 176.923935,407.910278 
	C194.051315,409.371124 209.734055,404.055206 225.030151,397.346222 
	C236.722000,392.218048 248.209015,386.622498 259.781342,381.222412 
	C264.101013,379.206696 266.630737,376.060120 266.371857,370.331604 
	C267.687805,367.555054 268.318787,363.223846 270.445282,362.286926 
	C277.452271,359.199677 280.093872,353.975861 280.817566,346.080658 
	C280.762726,342.731689 280.707886,339.382690 280.822449,335.229156 
	C280.752716,334.141052 280.682983,333.052948 280.741577,331.144318 
	C280.612732,329.777985 280.483887,328.411682 280.537659,326.432831 
	C280.324585,325.635529 280.111542,324.838226 279.897522,323.329651 
	C279.705475,322.899872 279.513428,322.470093 279.425751,321.432556 
	C279.050598,320.729523 278.675446,320.026489 278.283325,318.600586 
	C276.233795,311.027802 276.339783,311.203186 283.503418,306.874725 
	C285.676270,305.561829 287.086212,302.986359 289.005219,300.065582 
	C288.933685,292.301819 288.862183,284.538025 288.894257,276.496033 
	C288.901550,276.274597 288.807220,276.111877 288.317291,275.328461 
	C288.106293,274.879669 287.895325,274.430847 287.754028,273.270691 
	C281.584106,258.260925 273.641937,244.148315 263.515991,231.575119 
	C251.227844,216.317123 243.906296,199.490768 241.795166,179.992386 
	C240.988174,172.538971 238.966675,164.819534 235.681198,158.111496 
	C227.917053,142.259323 214.143677,132.109222 198.991531,124.057106 
	C192.009491,120.346725 186.986771,115.981087 185.942200,107.864174 
	C185.412292,103.746513 182.864960,102.631927 178.870987,102.891937 
	C174.925690,103.148788 173.162033,105.521904 172.235718,108.638939 
	C170.446655,114.658897 166.880951,118.852127 160.274277,121.129471 
	C150.892410,125.299286 144.016159,132.575241 138.009262,140.443710 
	C133.669174,146.128815 130.718460,152.874603 127.014885,159.859268 
	C125.969505,162.566727 124.924126,165.274185 123.357780,168.409821 
	C122.242531,170.418457 120.938004,172.346710 120.044868,174.449692 
	C116.227066,183.439056 112.734322,192.571457 108.734940,201.477402 
	C104.402374,211.125275 99.638771,220.579575 94.615677,230.604843 
	C88.548477,240.658142 82.024506,250.472473 76.591675,260.857605 
	C73.512802,266.743042 72.223549,273.564697 69.916840,280.747833 
	C69.914970,282.037476 69.913101,283.327148 69.506157,285.478973 
	C69.413536,286.742218 69.320908,288.005493 68.974152,289.495361 
M750.213623,249.198288 
	C742.949097,227.079361 735.922363,204.878143 728.309570,182.879745 
	C725.001831,173.321716 720.747864,164.058762 716.429993,154.894409 
	C713.664368,149.024765 709.873291,148.264328 703.646729,151.234695 
	C698.924988,153.487213 697.864075,156.814651 699.774963,162.499466 
	C700.393677,164.340179 700.835510,166.379135 700.745361,168.298630 
	C699.369446,197.586105 697.914490,226.869949 696.432434,256.152344 
	C694.588379,292.585693 692.645813,329.014221 690.884705,365.451538 
	C690.551758,372.340820 694.125916,376.002411 700.440735,376.148315 
	C707.475464,376.310791 710.808228,373.177551 710.985901,365.891144 
	C711.107666,360.897583 710.697815,355.888336 710.884705,350.899536 
	C712.656616,303.618073 714.496460,256.339111 716.351929,209.060822 
	C716.481689,205.755905 716.891479,202.461975 717.260681,198.104675 
	C717.968872,199.659073 718.238770,200.075592 718.354919,200.531311 
	C728.254456,239.361206 738.295471,278.156281 747.897522,317.059723 
	C749.756958,324.593384 749.718811,332.578308 750.891724,340.304108 
	C751.782104,346.169525 756.208069,350.021271 762.039429,350.823242 
	C767.531738,351.578583 769.400208,347.391235 770.981262,343.693726 
	C774.309265,335.911041 777.796509,328.081177 779.962646,319.936676 
	C790.178955,281.524597 799.968567,242.999039 809.927429,204.518402 
	C810.215637,203.404770 810.695312,202.340683 811.552856,199.952423 
	C811.552856,203.953918 811.575195,206.446167 811.549255,208.937912 
	C811.389832,224.253281 810.792542,239.579544 811.187500,254.880341 
	C811.505188,267.184479 813.499512,279.442047 813.900757,291.747986 
	C814.687805,315.887024 814.816772,340.046906 815.380432,364.194366 
	C815.492371,368.989929 816.046509,373.821564 816.921082,378.539368 
	C817.725159,382.877289 820.099182,386.422668 824.994629,386.842102 
	C829.962219,387.267639 833.526611,384.423370 835.056702,380.134094 
	C836.270020,376.733032 836.159241,372.799896 836.271912,369.091949 
	C836.325623,367.326294 835.238770,365.546753 835.165894,363.753296 
	C834.517761,347.800262 833.822815,331.846222 833.463562,315.885223 
	C833.197449,304.063690 833.713684,292.222137 833.354797,280.405518 
	C832.145996,240.602386 830.695251,200.806595 829.354797,161.007416 
	C829.161316,155.265945 827.085205,152.770966 821.586670,150.907776 
	C816.225098,149.090942 812.677979,151.349747 810.493408,155.793625 
	C807.052246,162.793564 803.147339,169.766342 801.080200,177.206619 
	C791.421387,211.971664 782.296021,246.885254 773.049011,281.764038 
	C770.844604,290.078979 768.905457,298.464264 766.559387,307.971619 
	C760.943054,287.701019 755.713989,268.828308 750.213623,249.198288 
M560.798950,374.119843 
	C561.228271,372.000366 561.860107,369.899384 562.055420,367.758606 
	C563.870117,347.866150 566.405273,327.998932 567.209290,308.063019 
	C569.008179,263.457214 569.987854,218.817520 571.101562,174.186661 
	C571.180298,171.031021 570.116821,167.596451 568.711304,164.717941 
	C566.979248,161.170654 563.346008,160.388947 559.639221,161.126663 
	C555.826599,161.885437 554.207214,164.673462 553.895630,168.336105 
	C553.782959,169.660721 553.772705,170.998230 553.788513,172.328979 
	C554.425537,226.007141 552.605286,279.607880 548.702759,333.141815 
	C548.395264,337.359650 547.868713,341.561523 547.443970,345.770844 
	C545.931763,344.321075 545.330811,342.835724 544.884644,341.305206 
	C535.575989,309.371613 526.890320,277.239807 516.786865,245.560043 
	C509.524750,222.789185 500.643555,200.514664 491.886261,178.254120 
	C489.568237,172.361801 485.486084,166.968689 481.391998,162.027405 
	C477.668976,157.533920 472.539368,158.098923 468.776581,162.404831 
	C464.459412,167.345200 462.112152,173.113678 461.848145,179.670166 
	C461.204498,195.651306 460.153412,211.632629 460.087433,227.617279 
	C459.905914,271.605621 460.076904,315.596130 460.322449,359.584564 
	C460.347931,364.152740 461.237396,368.911102 462.740814,373.227753 
	C464.719391,378.908722 470.148773,380.679321 475.398376,378.197388 
	C480.749573,375.667358 482.497986,370.176453 479.936157,364.776886 
	C478.901245,362.595612 477.828613,360.139038 477.823395,357.805389 
	C477.704926,304.983398 477.729553,252.161072 477.755890,199.338821 
	C477.756348,198.379562 478.104462,197.420471 478.497498,195.392639 
	C479.667023,198.179337 480.426514,199.836777 481.067719,201.538788 
	C502.330261,257.980286 526.048157,313.594666 538.814392,372.900085 
	C539.682617,376.933716 541.550659,380.678406 546.180237,380.272797 
	C551.301025,379.824127 557.418213,381.030853 560.798950,374.119843 
M589.018188,272.498138 
	C590.690247,292.215210 591.700134,312.018829 594.262390,331.619537 
	C596.030457,345.144470 600.386230,358.295593 608.634949,369.541168 
	C620.407410,385.590698 641.724426,387.317383 655.474854,372.927521 
	C660.286438,367.892181 664.051880,361.433594 666.867126,355.000092 
	C673.213440,340.497192 675.508789,324.870483 675.848755,309.207550 
	C676.379822,284.744171 676.288147,260.250244 675.732910,235.785797 
	C675.291565,216.341827 671.766418,197.413666 662.430603,179.964890 
	C653.454285,163.187943 639.233521,154.308151 620.603271,152.186951 
	C609.009888,150.866928 604.448059,153.997055 599.927368,164.827850 
	C592.668579,182.218964 591.044495,200.633362 590.126404,219.081329 
	C589.258118,236.528351 589.362061,254.023758 589.018188,272.498138 
M440.251068,331.373596 
	C440.132782,329.712372 440.153992,328.027039 439.871857,326.394135 
	C438.689026,319.548401 434.214478,313.811066 428.614105,314.201813 
	C419.918549,314.808472 411.239746,316.480499 402.722717,318.436310 
	C399.047485,319.280304 396.627350,322.409302 397.510406,326.904205 
	C398.365631,331.257538 401.032593,333.752136 405.316589,334.035950 
	C409.117004,334.287689 413.141449,334.604523 416.737671,333.650787 
	C421.622833,332.355225 423.348969,334.603210 423.832886,338.522888 
	C425.095398,348.749756 426.178162,359.003143 427.038300,369.270630 
	C427.167297,370.810303 426.021484,372.733795 424.944580,374.055359 
	C411.146576,390.988861 386.443420,388.298553 375.297882,368.454529 
	C369.626709,358.357391 366.557892,347.277893 364.983917,335.796997 
	C361.688385,311.758636 362.112183,287.594421 362.911865,263.458832 
	C363.512451,245.332336 364.577362,227.201233 366.135223,209.132507 
	C367.484711,193.480484 371.081909,178.249115 378.184601,164.054947 
	C381.511688,157.405960 386.004181,151.739273 393.808655,150.618637 
	C397.449432,150.095840 401.344971,151.093018 405.092316,151.629578 
	C410.007263,152.333313 414.195251,150.067978 415.346710,145.835464 
	C416.623749,141.141357 414.268951,136.982498 409.204559,135.470078 
	C407.159027,134.859161 404.951050,134.593964 402.807770,134.540024 
	C387.022583,134.142899 373.729340,139.793518 365.164581,153.116348 
	C359.667328,161.667435 355.118958,171.209747 352.144287,180.920120 
	C346.357880,199.809219 344.954407,219.491730 344.935303,239.216110 
	C344.903076,272.509949 343.314789,305.860565 348.933136,338.940948 
	C351.785248,355.733887 356.797729,371.594086 367.368622,385.282623 
	C378.434265,399.611755 401.364655,408.323120 420.053894,396.665436 
	C422.291595,395.269653 424.775574,394.268616 427.228699,393.042969 
	C428.135345,394.245056 428.839081,395.370697 429.728546,396.322906 
	C432.993683,399.818420 437.153534,401.089935 441.546021,399.507294 
	C445.808167,397.971588 447.206879,394.153839 446.989929,389.777679 
	C446.849854,386.951447 446.796295,384.110016 446.450165,381.306732 
	C444.431885,364.959747 442.338531,348.622040 440.251068,331.373596 
M860.790405,217.772339 
	C865.671265,230.330887 870.595947,242.872742 875.390381,255.464203 
	C876.199890,257.590179 876.721313,259.907166 876.909790,262.174622 
	C877.861145,273.617889 878.706848,285.070587 879.499207,296.526215 
	C881.226868,321.503693 881.363586,346.443970 877.678589,371.296967 
	C877.482300,372.620911 877.552368,374.723846 878.351746,375.320374 
	C880.995056,377.292694 884.121765,380.164764 886.888611,379.986481 
	C889.629089,379.809906 893.538757,376.852264 894.484802,374.230164 
	C896.299927,369.199310 897.036804,363.547119 897.073364,358.144958 
	C897.292969,325.649109 897.124756,293.150787 897.251770,260.653961 
	C897.272461,255.350250 897.486694,249.901886 898.693115,244.774872 
	C902.691223,227.782898 907.485291,210.976166 911.373291,193.961090 
	C913.701355,183.773117 915.036621,173.347855 916.556763,162.990875 
	C917.161926,158.867630 915.098938,156.020782 911.039734,154.615204 
	C907.113403,153.255646 904.543640,155.173233 902.562927,158.085724 
	C900.983765,160.407837 899.404358,162.889557 898.579407,165.535599 
	C895.860046,174.257919 893.117615,183.002518 891.061462,191.895203 
	C888.040833,204.959290 885.604614,218.158508 882.611267,232.808167 
	C881.733276,229.922043 881.315002,228.520554 880.880737,227.124023 
	C875.598694,210.138397 870.587830,193.060547 864.868225,176.223480 
	C863.093018,170.997772 859.616577,166.275803 856.484497,161.615173 
	C854.804199,159.114822 852.427551,158.225128 849.305481,160.651306 
	C843.527832,165.140945 842.848938,165.258087 845.529175,173.677048 
	C850.168335,188.248840 855.449158,202.616318 860.790405,217.772339 
z"/>
<path fill="#000000" opacity="1.000000" stroke="none" 
	d="
M961.000000,106.531342 
	C959.329346,104.648674 957.472839,102.406502 956.017395,99.928749 
	C944.314453,80.004898 926.793457,68.708282 904.210388,65.037697 
	C899.675537,64.300613 895.016602,64.043221 890.414795,64.042458 
	C616.317261,63.996979 342.219696,63.983891 68.122177,64.043236 
	C50.663273,64.047012 35.346073,70.094749 21.956238,81.427132 
	C14.402960,87.819786 8.851031,95.540092 4.353772,104.194839 
	C3.612054,105.622246 2.594752,106.906456 1.352405,108.128418 
	C1.000000,72.346634 1.000000,36.693272 1.000001,1.045423 
	C321.000000,1.050940 641.000000,1.050940 961.000000,1.050940 
	C961.000000,36.088814 961.000000,71.075752 961.000000,106.531342 
z"/>
<path fill="#000000" opacity="1.000000" stroke="none" 
	d="
M1.000003,436.468658 
	C1.966067,436.883850 3.329053,437.583008 3.839048,438.679077 
	C12.429470,457.140900 26.541595,469.545349 45.632675,476.074585 
	C51.776474,478.175781 58.447151,479.835724 64.878021,479.839996 
	C342.325378,480.023895 619.773132,480.157471 897.219971,479.726288 
	C922.132202,479.687592 941.721436,466.904327 955.156128,445.525360 
	C956.805603,442.900604 958.579468,440.354065 960.647827,437.885620 
	C961.000000,472.320465 961.000000,506.640961 961.000000,540.955261 
	C641.000000,540.949097 321.000000,540.949097 1.000000,540.949097 
	C1.000000,506.244598 1.000000,471.590973 1.000003,436.468658 
z"/>
<path fill="#FDFDFD" opacity="1.000000" stroke="none" 
	d="
M750.349304,249.576935 
	C755.713989,268.828308 760.943054,287.701019 766.559387,307.971619 
	C768.905457,298.464264 770.844604,290.078979 773.049011,281.764038 
	C782.296021,246.885254 791.421387,211.971664 801.080200,177.206619 
	C803.147339,169.766342 807.052246,162.793564 810.493408,155.793625 
	C812.677979,151.349747 816.225098,149.090942 821.586670,150.907776 
	C827.085205,152.770966 829.161316,155.265945 829.354797,161.007416 
	C830.695251,200.806595 832.145996,240.602386 833.354797,280.405518 
	C833.713684,292.222137 833.197449,304.063690 833.463562,315.885223 
	C833.822815,331.846222 834.517761,347.800262 835.165894,363.753296 
	C835.238770,365.546753 836.325623,367.326294 836.271912,369.091949 
	C836.159241,372.799896 836.270020,376.733032 835.056702,380.134094 
	C833.526611,384.423370 829.962219,387.267639 824.994629,386.842102 
	C820.099182,386.422668 817.725159,382.877289 816.921082,378.539368 
	C816.046509,373.821564 815.492371,368.989929 815.380432,364.194366 
	C814.816772,340.046906 814.687805,315.887024 813.900757,291.747986 
	C813.499512,279.442047 811.505188,267.184479 811.187500,254.880341 
	C810.792542,239.579544 811.389832,224.253281 811.549255,208.937912 
	C811.575195,206.446167 811.552856,203.953918 811.552856,199.952423 
	C810.695312,202.340683 810.215637,203.404770 809.927429,204.518402 
	C799.968567,242.999039 790.178955,281.524597 779.962646,319.936676 
	C777.796509,328.081177 774.309265,335.911041 770.981262,343.693726 
	C769.400208,347.391235 767.531738,351.578583 762.039429,350.823242 
	C756.208069,350.021271 751.782104,346.169525 750.891724,340.304108 
	C749.718811,332.578308 749.756958,324.593384 747.897522,317.059723 
	C738.295471,278.156281 728.254456,239.361206 718.354919,200.531311 
	C718.238770,200.075592 717.968872,199.659073 717.260681,198.104675 
	C716.891479,202.461975 716.481689,205.755905 716.351929,209.060822 
	C714.496460,256.339111 712.656616,303.618073 710.884705,350.899536 
	C710.697815,355.888336 711.107666,360.897583 710.985901,365.891144 
	C710.808228,373.177551 707.475464,376.310791 700.440735,376.148315 
	C694.125916,376.002411 690.551758,372.340820 690.884705,365.451538 
	C692.645813,329.014221 694.588379,292.585693 696.432434,256.152344 
	C697.914490,226.869949 699.369446,197.586105 700.745361,168.298630 
	C700.835510,166.379135 700.393677,164.340179 699.774963,162.499466 
	C697.864075,156.814651 698.924988,153.487213 703.646729,151.234695 
	C709.873291,148.264328 713.664368,149.024765 716.429993,154.894409 
	C720.747864,164.058762 725.001831,173.321716 728.309570,182.879745 
	C735.922363,204.878143 742.949097,227.079361 750.349304,249.576935 
z"/>
<path fill="#FDFDFD" opacity="1.000000" stroke="none" 
	d="
M560.663574,374.496552 
	C557.418213,381.030853 551.301025,379.824127 546.180237,380.272797 
	C541.550659,380.678406 539.682617,376.933716 538.814392,372.900085 
	C526.048157,313.594666 502.330261,257.980286 481.067719,201.538788 
	C480.426514,199.836777 479.667023,198.179337 478.497498,195.392639 
	C478.104462,197.420471 477.756348,198.379562 477.755890,199.338821 
	C477.729553,252.161072 477.704926,304.983398 477.823395,357.805389 
	C477.828613,360.139038 478.901245,362.595612 479.936157,364.776886 
	C482.497986,370.176453 480.749573,375.667358 475.398376,378.197388 
	C470.148773,380.679321 464.719391,378.908722 462.740814,373.227753 
	C461.237396,368.911102 460.347931,364.152740 460.322449,359.584564 
	C460.076904,315.596130 459.905914,271.605621 460.087433,227.617279 
	C460.153412,211.632629 461.204498,195.651306 461.848145,179.670166 
	C462.112152,173.113678 464.459412,167.345200 468.776581,162.404831 
	C472.539368,158.098923 477.668976,157.533920 481.391998,162.027405 
	C485.486084,166.968689 489.568237,172.361801 491.886261,178.254120 
	C500.643555,200.514664 509.524750,222.789185 516.786865,245.560043 
	C526.890320,277.239807 535.575989,309.371613 544.884644,341.305206 
	C545.330811,342.835724 545.931763,344.321075 547.443970,345.770844 
	C547.868713,341.561523 548.395264,337.359650 548.702759,333.141815 
	C552.605286,279.607880 554.425537,226.007141 553.788513,172.328979 
	C553.772705,170.998230 553.782959,169.660721 553.895630,168.336105 
	C554.207214,164.673462 555.826599,161.885437 559.639221,161.126663 
	C563.346008,160.388947 566.979248,161.170654 568.711304,164.717941 
	C570.116821,167.596451 571.180298,171.031021 571.101562,174.186661 
	C569.987854,218.817520 569.008179,263.457214 567.209290,308.063019 
	C566.405273,327.998932 563.870117,347.866150 562.055420,367.758606 
	C561.860107,369.899384 561.228271,372.000366 560.663574,374.496552 
z"/>
<path fill="#FDFDFD" opacity="1.000000" stroke="none" 
	d="
M589.028320,271.998016 
	C589.362061,254.023758 589.258118,236.528351 590.126404,219.081329 
	C591.044495,200.633362 592.668579,182.218964 599.927368,164.827850 
	C604.448059,153.997055 609.009888,150.866928 620.603271,152.186951 
	C639.233521,154.308151 653.454285,163.187943 662.430603,179.964890 
	C671.766418,197.413666 675.291565,216.341827 675.732910,235.785797 
	C676.288147,260.250244 676.379822,284.744171 675.848755,309.207550 
	C675.508789,324.870483 673.213440,340.497192 666.867126,355.000092 
	C664.051880,361.433594 660.286438,367.892181 655.474854,372.927521 
	C641.724426,387.317383 620.407410,385.590698 608.634949,369.541168 
	C600.386230,358.295593 596.030457,345.144470 594.262390,331.619537 
	C591.700134,312.018829 590.690247,292.215210 589.028320,271.998016 
M608.863037,301.580170 
	C610.529968,313.769104 611.726074,326.047974 614.030762,338.115082 
	C615.543030,346.032867 617.906555,353.987915 621.251221,361.303375 
	C625.106812,369.736389 633.320312,371.177002 640.116272,364.807220 
	C643.846985,361.310425 646.822083,356.509521 648.810425,351.742889 
	C655.368896,336.020355 656.789429,319.228912 658.023254,302.426788 
	C660.610718,267.192505 654.338379,232.324295 653.645020,197.207275 
	C653.400635,184.829483 646.093933,174.818344 633.445435,170.636871 
	C622.934814,167.162170 615.228455,171.224319 612.082153,181.735016 
	C610.566956,186.796783 609.318787,192.101547 609.075317,197.348480 
	C608.489563,209.971298 608.406799,222.625031 608.414307,235.266129 
	C608.427246,257.060822 608.663025,278.855377 608.863037,301.580170 
z"/>
<path fill="#FDFDFD" opacity="1.000000" stroke="none" 
	d="
M440.260773,331.827393 
	C442.338531,348.622040 444.431885,364.959747 446.450165,381.306732 
	C446.796295,384.110016 446.849854,386.951447 446.989929,389.777679 
	C447.206879,394.153839 445.808167,397.971588 441.546021,399.507294 
	C437.153534,401.089935 432.993683,399.818420 429.728546,396.322906 
	C428.839081,395.370697 428.135345,394.245056 427.228699,393.042969 
	C424.775574,394.268616 422.291595,395.269653 420.053894,396.665436 
	C401.364655,408.323120 378.434265,399.611755 367.368622,385.282623 
	C356.797729,371.594086 351.785248,355.733887 348.933136,338.940948 
	C343.314789,305.860565 344.903076,272.509949 344.935303,239.216110 
	C344.954407,219.491730 346.357880,199.809219 352.144287,180.920120 
	C355.118958,171.209747 359.667328,161.667435 365.164581,153.116348 
	C373.729340,139.793518 387.022583,134.142899 402.807770,134.540024 
	C404.951050,134.593964 407.159027,134.859161 409.204559,135.470078 
	C414.268951,136.982498 416.623749,141.141357 415.346710,145.835464 
	C414.195251,150.067978 410.007263,152.333313 405.092316,151.629578 
	C401.344971,151.093018 397.449432,150.095840 393.808655,150.618637 
	C386.004181,151.739273 381.511688,157.405960 378.184601,164.054947 
	C371.081909,178.249115 367.484711,193.480484 366.135223,209.132507 
	C364.577362,227.201233 363.512451,245.332336 362.911865,263.458832 
	C362.112183,287.594421 361.688385,311.758636 364.983917,335.796997 
	C366.557892,347.277893 369.626709,358.357391 375.297882,368.454529 
	C386.443420,388.298553 411.146576,390.988861 424.944580,374.055359 
	C426.021484,372.733795 427.167297,370.810303 427.038300,369.270630 
	C426.178162,359.003143 425.095398,348.749756 423.832886,338.522888 
	C423.348969,334.603210 421.622833,332.355225 416.737671,333.650787 
	C413.141449,334.604523 409.117004,334.287689 405.316589,334.035950 
	C401.032593,333.752136 398.365631,331.257538 397.510406,326.904205 
	C396.627350,322.409302 399.047485,319.280304 402.722717,318.436310 
	C411.239746,316.480499 419.918549,314.808472 428.614105,314.201813 
	C434.214478,313.811066 438.689026,319.548401 439.871857,326.394135 
	C440.153992,328.027039 440.132782,329.712372 440.260773,331.827393 
z"/>
<path fill="#FDFDFD" opacity="1.000000" stroke="none" 
	d="
M860.625610,217.420929 
	C855.449158,202.616318 850.168335,188.248840 845.529175,173.677048 
	C842.848938,165.258087 843.527832,165.140945 849.305481,160.651306 
	C852.427551,158.225128 854.804199,159.114822 856.484497,161.615173 
	C859.616577,166.275803 863.093018,170.997772 864.868225,176.223480 
	C870.587830,193.060547 875.598694,210.138397 880.880737,227.124023 
	C881.315002,228.520554 881.733276,229.922043 882.611267,232.808167 
	C885.604614,218.158508 888.040833,204.959290 891.061462,191.895203 
	C893.117615,183.002518 895.860046,174.257919 898.579407,165.535599 
	C899.404358,162.889557 900.983765,160.407837 902.562927,158.085724 
	C904.543640,155.173233 907.113403,153.255646 911.039734,154.615204 
	C915.098938,156.020782 917.161926,158.867630 916.556763,162.990875 
	C915.036621,173.347855 913.701355,183.773117 911.373291,193.961090 
	C907.485291,210.976166 902.691223,227.782898 898.693115,244.774872 
	C897.486694,249.901886 897.272461,255.350250 897.251770,260.653961 
	C897.124756,293.150787 897.292969,325.649109 897.073364,358.144958 
	C897.036804,363.547119 896.299927,369.199310 894.484802,374.230164 
	C893.538757,376.852264 889.629089,379.809906 886.888611,379.986481 
	C884.121765,380.164764 880.995056,377.292694 878.351746,375.320374 
	C877.552368,374.723846 877.482300,372.620911 877.678589,371.296967 
	C881.363586,346.443970 881.226868,321.503693 879.499207,296.526215 
	C878.706848,285.070587 877.861145,273.617889 876.909790,262.174622 
	C876.721313,259.907166 876.199890,257.590179 875.390381,255.464203 
	C870.595947,242.872742 865.671265,230.330887 860.625610,217.420929 
z"/>
<path fill="#CDCECD" opacity="1.000000" stroke="none" 
	d="
M266.084808,371.024811 
	C266.630737,376.060120 264.101013,379.206696 259.781342,381.222412 
	C248.209015,386.622498 236.722000,392.218048 225.030151,397.346222 
	C209.734055,404.055206 194.051315,409.371124 176.241730,407.536682 
	C169.065964,406.381683 162.572372,405.600311 156.078796,404.818970 
	C155.593872,404.759583 155.108932,404.700165 154.113190,404.215424 
	C150.372681,402.679840 147.133499,401.596313 143.915268,400.453796 
	C137.106216,398.036346 130.308090,395.588043 123.505486,393.152405 
	C123.505486,393.152405 123.202179,393.128113 123.001709,392.701355 
	C121.916748,391.315094 121.009552,390.375397 120.151329,389.392914 
	C112.761772,380.933655 105.381058,372.466644 97.998856,364.000977 
	C98.000000,364.000000 98.001999,363.997559 98.361092,363.942383 
	C101.502335,362.928680 104.284477,361.970184 107.095093,361.401306 
	C108.307526,369.820007 117.367500,382.188263 123.422379,383.723694 
	C120.975052,380.339783 118.566841,377.196564 116.359848,373.917938 
	C112.271599,367.844635 113.400093,360.559113 119.243423,356.915100 
	C121.998772,356.710266 124.470940,356.024445 126.745682,356.434296 
	C133.967728,357.735596 141.084717,359.617584 148.304230,360.936188 
	C153.004150,361.794617 157.808548,362.095306 162.573135,362.576813 
	C164.043503,362.725433 165.580292,362.887421 167.012054,362.629333 
	C172.645584,361.614075 172.634537,361.552887 172.268341,367.194733 
	C172.022079,370.989105 174.236725,373.079590 177.307724,371.345428 
	C183.370682,367.921967 188.781891,367.638184 194.371109,374.081909 
	C194.674973,371.467682 194.608200,369.837158 195.105118,368.401825 
	C195.579300,367.032135 196.640823,365.865784 197.444153,364.610077 
	C198.266235,365.908997 199.388504,367.112976 199.836639,368.530151 
	C200.435715,370.424561 200.511856,372.484314 200.812576,374.473083 
	C201.120392,373.985229 201.428223,373.497375 201.736038,373.009521 
	C205.962906,373.261078 210.188217,373.544006 214.417236,373.751648 
	C216.738297,373.865662 219.343475,374.553955 221.337402,373.763947 
	C227.071426,371.491974 232.302353,372.224243 236.750839,375.021637 
	C239.392654,372.102875 241.702286,369.551086 243.928085,367.358765 
	C241.144562,373.115967 238.444870,378.513702 235.745178,383.911407 
	C243.488586,376.862701 250.690628,369.566498 250.048904,357.773132 
	C250.448257,356.984802 250.755112,356.479218 251.339127,356.153259 
	C257.688629,360.605225 261.309967,366.497375 262.819336,374.813904 
	C263.914124,372.887787 264.451508,371.942261 265.262909,371.003174 
	C265.719543,371.014648 265.902161,371.019714 266.084808,371.024811 
z"/>
<path fill="#C3C8CC" opacity="1.000000" stroke="none" 
	d="
M107.066635,361.011658 
	C104.284477,361.970184 101.502335,362.928680 98.281265,363.643311 
	C97.231018,362.600525 96.619682,361.801605 96.002045,360.583435 
	C94.878952,354.242371 93.762154,348.320465 92.645363,342.398590 
	C91.889503,342.392456 91.133636,342.386292 90.377769,342.380157 
	C90.012543,344.553986 88.917328,346.921936 89.432991,348.861542 
	C90.529861,352.987244 92.464035,356.890289 94.215485,361.172150 
	C95.583206,362.307129 96.790459,363.154541 97.997704,364.001953 
	C105.381058,372.466644 112.761772,380.933655 120.151329,389.392914 
	C121.009552,390.375397 121.916748,391.315094 122.896477,392.591492 
	C118.837395,389.675995 114.178917,386.913025 110.638016,383.109589 
	C104.094597,376.080963 97.847069,368.708160 92.137535,360.989624 
	C85.318024,351.770538 83.740616,340.531738 81.812660,329.577545 
	C81.164825,325.896698 80.210602,323.374634 76.180222,321.822052 
	C70.575386,319.662964 70.337769,313.897491 69.871094,308.639648 
	C72.148537,312.009155 71.067291,317.241272 76.227989,319.432892 
	C77.684837,316.637573 78.677750,313.777985 80.446548,311.528534 
	C84.701294,306.117554 88.292809,299.949768 95.389404,296.932953 
	C98.146133,295.626160 100.559883,294.413025 103.342010,293.096191 
	C109.819626,290.514893 115.928856,288.037354 122.337761,285.582245 
	C123.426361,285.739838 124.215294,285.874969 125.328537,286.018158 
	C126.456276,285.764709 127.259689,285.503235 128.463486,285.195679 
	C129.919983,284.952759 130.976074,284.755920 132.204102,284.856934 
	C132.661102,285.774719 132.946213,286.394745 132.974503,287.242462 
	C129.807587,290.288391 126.897461,293.106628 123.656036,296.015747 
	C119.670746,299.472412 115.904640,302.725677 112.388016,306.229340 
	C106.536819,312.058899 104.121101,319.356689 104.012238,327.476135 
	C103.955528,331.705963 105.492157,332.631958 109.169502,330.536743 
	C112.189102,328.816315 115.051666,326.820251 118.244644,325.158905 
	C122.337364,327.248016 126.169289,329.124634 130.000610,331.000610 
	C130.000000,331.000000 129.998779,330.998779 130.005127,331.393799 
	C130.048111,332.581726 130.084763,333.374695 130.085907,334.374542 
	C130.050415,334.581451 129.944397,334.987701 129.661209,335.131897 
	C128.925858,336.192230 128.473694,337.108368 127.864677,338.322662 
	C126.663910,339.880707 125.680870,341.197510 124.565880,342.391022 
	C118.751274,348.615173 112.903122,354.807983 107.066635,361.011658 
z"/>
<path fill="#D1D3D3" opacity="1.000000" stroke="none" 
	d="
M266.228333,370.678223 
	C265.902161,371.019714 265.719543,371.014648 265.263489,370.561951 
	C265.923950,364.494629 263.900055,359.658051 259.689941,356.386780 
	C255.042496,352.775696 249.643967,350.132172 244.577042,347.059875 
	C237.686722,342.881866 230.049713,339.628754 226.241394,331.833130 
	C232.647018,330.126099 238.714294,328.543396 244.827606,327.165009 
	C245.842422,326.936188 247.048813,327.657593 248.182831,327.838959 
	C252.527191,328.533752 256.878143,329.187347 261.459106,329.980225 
	C262.139435,330.381378 262.587280,330.658661 263.122742,331.273499 
	C264.788239,332.751190 266.366150,333.891296 268.112244,335.207245 
	C268.509674,335.613251 268.740479,335.841827 269.067444,336.400909 
	C270.915649,339.686951 272.753723,342.594818 274.398865,345.607971 
	C276.009125,348.557281 277.950714,349.242249 280.625183,346.975525 
	C280.093872,353.975861 277.452271,359.199677 270.445282,362.286926 
	C268.318787,363.223846 267.687805,367.555054 266.228333,370.678223 
z"/>
<path fill="#DEDFDE" opacity="1.000000" stroke="none" 
	d="
M280.721375,346.528076 
	C277.950714,349.242249 276.009125,348.557281 274.398865,345.607971 
	C272.753723,342.594818 270.915649,339.686951 269.352112,336.243896 
	C269.610382,334.272858 270.108215,332.649689 269.675262,331.332458 
	C267.315643,324.153442 261.182892,320.242950 255.936722,315.432129 
	C249.375229,309.415131 243.379272,302.768738 237.351532,296.199188 
	C236.640106,295.423828 237.266754,293.420746 237.602783,292.077240 
	C249.964508,298.483429 262.872528,303.323181 273.235779,312.832184 
	C272.725311,311.563477 272.214874,310.294800 271.983337,309.719330 
	C277.853149,306.680359 283.349365,303.834778 288.845612,300.989197 
	C287.086212,302.986359 285.676270,305.561829 283.503418,306.874725 
	C276.339783,311.203186 276.233795,311.027802 278.276489,319.271118 
	C278.620239,320.641174 278.970825,321.340759 279.321381,322.040314 
	C279.513428,322.470093 279.705475,322.899872 279.749023,323.893127 
	C279.852051,325.319550 280.103546,326.182434 280.355042,327.045349 
	C280.483887,328.411682 280.612732,329.777985 280.435974,331.710663 
	C280.304596,333.529236 280.478790,334.781494 280.653015,336.033722 
	C280.707886,339.382690 280.762726,342.731689 280.721375,346.528076 
z"/>
<path fill="#CAA58A" opacity="1.000000" stroke="none" 
	d="
M160.971771,121.020348 
	C166.880951,118.852127 170.446655,114.658897 172.235718,108.638939 
	C173.162033,105.521904 174.925690,103.148788 178.870987,102.891937 
	C182.864960,102.631927 185.412292,103.746513 185.942200,107.864174 
	C186.986771,115.981087 192.009491,120.346725 198.991531,124.057106 
	C214.143677,132.109222 227.917053,142.259323 235.681198,158.111496 
	C238.966675,164.819534 240.988174,172.538971 241.795166,179.992386 
	C243.906296,199.490768 251.227844,216.317123 263.515991,231.575119 
	C273.641937,244.148315 281.584106,258.260925 287.487366,273.617920 
	C286.392914,273.631775 285.565155,273.298431 284.459686,272.805115 
	C276.910095,254.028503 265.947723,237.664322 253.796234,221.939163 
	C250.187073,217.268539 246.770584,211.926422 245.156326,206.345184 
	C241.752319,194.576141 239.508423,182.464706 236.958160,170.457733 
	C234.899536,160.765396 230.616180,152.392715 222.986938,145.467316 
	C219.521225,142.411057 216.269180,139.607681 212.833527,136.542511 
	C211.131622,135.462906 209.613342,134.645096 207.906540,133.567215 
	C206.492081,132.497025 205.266144,131.686890 203.812912,130.628784 
	C198.055939,127.802162 192.526276,125.223534 186.865295,122.365257 
	C186.469147,120.831406 186.204300,119.577202 185.947144,117.885895 
	C185.092804,113.054420 185.587524,107.899841 179.443726,105.444847 
	C179.672134,106.960648 179.766495,107.586868 179.526062,108.241806 
	C176.114166,112.175667 173.037048,116.080818 169.668411,120.036270 
	C168.667786,120.401161 167.958649,120.715752 166.911987,121.144272 
	C164.924332,121.788910 163.274231,122.319626 161.510040,122.547173 
	C161.254578,121.836113 161.113174,121.428230 160.971771,121.020348 
z"/>
<path fill="#F5E3CF" opacity="1.000000" stroke="none" 
	d="
M284.737396,272.965088 
	C285.565155,273.298431 286.392914,273.631775 287.452515,273.973572 
	C287.895325,274.430847 288.106293,274.879669 288.405884,275.803772 
	C288.498718,276.500488 288.597443,276.665558 288.790680,276.774261 
	C288.862183,284.538025 288.933685,292.301819 288.925415,300.527405 
	C283.349365,303.834778 277.853149,306.680359 271.983337,309.719330 
	C272.214874,310.294800 272.725311,311.563477 273.235779,312.832184 
	C262.872528,303.323181 249.964508,298.483429 237.545135,291.690918 
	C237.086395,290.176880 237.014984,289.139587 237.294495,288.137939 
	C240.459991,289.387817 243.274551,290.602081 246.328217,291.947998 
	C246.915329,292.183228 247.263351,292.286835 247.831238,292.639832 
	C255.750580,296.457764 263.450043,300.026276 271.572632,303.680054 
	C274.292786,303.751556 276.589874,303.737854 279.193726,303.734680 
	C280.144836,303.290558 280.789185,302.835846 281.591034,302.322510 
	C281.748566,302.263885 282.024811,302.072327 282.321930,301.993347 
	C283.064636,301.264923 283.510223,300.615509 284.167786,299.692230 
	C285.113831,297.763489 285.847961,296.108612 286.807922,294.217804 
	C287.162994,292.937805 287.292236,291.893738 287.478394,290.446411 
	C287.492615,288.419464 287.449890,286.795807 287.514709,284.853088 
	C287.296204,283.520905 286.970123,282.507782 286.593872,281.109283 
	C285.941589,278.137634 285.339508,275.551392 284.737396,272.965088 
z"/>
<path fill="#CAA58A" opacity="1.000000" stroke="none" 
	d="
M70.128265,279.964691 
	C72.223549,273.564697 73.512802,266.743042 76.591675,260.857605 
	C82.024506,250.472473 88.548477,240.658142 95.044434,230.555481 
	C95.729546,230.782990 95.985909,231.059860 96.112747,231.650269 
	C88.050812,246.881912 77.564720,260.485840 72.583969,277.197479 
	C71.627312,278.231842 70.877785,279.098267 70.128265,279.964691 
z"/>
<path fill="#D1D3D3" opacity="1.000000" stroke="none" 
	d="
M95.046432,297.026611 
	C88.292809,299.949768 84.701294,306.117554 80.446548,311.528534 
	C78.677750,313.777985 77.684837,316.637573 76.227989,319.432892 
	C71.067291,317.241272 72.148537,312.009155 69.947327,308.261627 
	C69.502449,307.285126 69.285690,306.526459 69.249489,305.019440 
	C69.873970,300.166473 70.317894,296.061859 70.825645,292.387695 
	C71.012230,295.363953 71.134979,297.909698 71.513710,300.883545 
	C71.998390,302.616882 72.227097,303.922150 72.362869,305.573669 
	C72.411331,307.445587 72.552742,308.971191 72.798241,311.619781 
	C74.470421,309.791138 75.300156,308.883759 76.480263,307.942017 
	C78.341919,306.749603 80.390961,305.900269 81.265724,304.376740 
	C84.124397,299.397827 88.091896,296.455780 94.063599,296.177216 
	C94.532326,296.560944 94.789383,296.793762 95.046432,297.026611 
z"/>
<path fill="#99807D" opacity="1.000000" stroke="none" 
	d="
M96.242279,231.336746 
	C95.985909,231.059860 95.729546,230.782990 95.268173,230.312210 
	C99.638771,220.579575 104.402374,211.125275 108.734940,201.477402 
	C112.734322,192.571457 116.227066,183.439056 120.044868,174.449692 
	C120.938004,172.346710 122.242531,170.418457 123.630936,168.581818 
	C121.562111,175.496552 119.220139,182.239288 116.685814,189.249359 
	C115.958778,190.967331 115.424095,192.417953 114.682121,194.152924 
	C113.337486,197.017288 112.307602,199.651276 111.043739,202.167755 
	C106.150352,211.911072 101.182442,221.616943 96.242279,231.336746 
z"/>
<path fill="#8A3632" opacity="1.000000" stroke="none" 
	d="
M116.878166,188.982010 
	C119.220139,182.239288 121.562111,175.496552 123.891418,168.367737 
	C124.924126,165.274185 125.969505,162.566727 127.360992,159.320221 
	C128.879608,157.249741 130.065018,155.727997 131.221786,154.184784 
	C133.349792,151.345917 135.460953,148.494415 137.631287,146.044876 
	C136.821457,148.735336 136.063202,151.074692 135.078751,153.314636 
	C131.690430,161.024155 128.504929,168.842941 124.678383,176.332031 
	C122.440704,180.711502 122.645912,186.749939 116.878166,188.982010 
z"/>
<path fill="#99807D" opacity="1.000000" stroke="none" 
	d="
M137.579147,145.648193 
	C135.460953,148.494415 133.349792,151.345917 131.221786,154.184784 
	C130.065018,155.727997 128.879608,157.249741 127.427612,158.964264 
	C130.718460,152.874603 133.669174,146.128815 138.009262,140.443710 
	C144.016159,132.575241 150.892410,125.299286 160.623016,121.074905 
	C161.113174,121.428230 161.254578,121.836113 161.371918,122.708832 
	C161.347855,123.173653 161.073349,123.485374 160.787277,123.637749 
	C160.177414,124.073006 159.853607,124.355888 159.377716,124.680443 
	C159.225647,124.722115 158.948364,124.879761 158.686157,124.947205 
	C158.027084,125.366020 157.630188,125.717400 156.959534,126.183952 
	C156.077393,126.794884 155.469009,127.290627 154.600098,127.926041 
	C153.843140,128.665482 153.346725,129.265244 152.872498,129.841064 
	C152.894699,129.817108 152.830719,129.803925 152.503418,129.893829 
	C147.341888,135.213791 142.507645,140.443832 137.653961,145.652252 
	C137.634521,145.630615 137.579147,145.648193 137.579147,145.648193 
z"/>
<path fill="#C3C8CC" opacity="1.000000" stroke="none" 
	d="
M123.710770,393.441162 
	C130.308090,395.588043 137.106216,398.036346 143.915268,400.453796 
	C147.133499,401.596313 150.372681,402.679840 153.792206,404.033325 
	C143.433762,402.261414 132.976929,399.985413 123.710770,393.441162 
z"/>
<path fill="#C3C8CC" opacity="1.000000" stroke="none" 
	d="
M70.761826,291.957245 
	C70.317894,296.061859 69.873970,300.166473 69.230453,304.621887 
	C69.004112,300.506653 68.977341,296.040649 69.173248,291.037659 
	C69.442307,290.359497 69.550301,290.204620 69.522499,290.080048 
	C69.460365,289.801575 69.330536,289.538239 69.228287,289.268738 
	C69.320908,288.005493 69.413536,286.742218 69.873207,284.938171 
	C70.766251,284.284790 71.292252,284.172211 71.756332,284.421509 
	C71.564018,284.990540 71.433601,285.197662 71.179001,285.698853 
	C70.957138,287.981049 70.859482,289.969147 70.761826,291.957245 
z"/>
<path fill="#C3C8CC" opacity="1.000000" stroke="none" 
	d="
M156.385605,405.019226 
	C162.572372,405.600311 169.065964,406.381683 175.778778,407.459778 
	C169.562820,406.910828 163.127609,406.065155 156.385605,405.019226 
z"/>
<path fill="#D1D3D3" opacity="1.000000" stroke="none" 
	d="
M71.818245,284.059631 
	C71.292252,284.172211 70.766251,284.284790 70.075745,284.507080 
	C69.913101,283.327148 69.914970,282.037476 70.022552,280.356262 
	C70.877785,279.098267 71.627312,278.231842 72.551727,277.586975 
	C72.423820,279.892242 72.121033,281.975922 71.818245,284.059631 
z"/>
<path fill="#D1D3D3" opacity="1.000000" stroke="none" 
	d="
M280.737732,335.631439 
	C280.478790,334.781494 280.304596,333.529236 280.371826,332.120911 
	C280.682983,333.052948 280.752716,334.141052 280.737732,335.631439 
z"/>
<path fill="#D1D3D3" opacity="1.000000" stroke="none" 
	d="
M280.446350,326.739075 
	C280.103546,326.182434 279.852051,325.319550 279.749512,324.248779 
	C280.111542,324.838226 280.324585,325.635529 280.446350,326.739075 
z"/>
<path fill="#D1D3D3" opacity="1.000000" stroke="none" 
	d="
M279.373566,321.736450 
	C278.970825,321.340759 278.620239,320.641174 278.285004,319.632507 
	C278.675446,320.026489 279.050598,320.729523 279.373566,321.736450 
z"/>
<path fill="#CAA58A" opacity="1.000000" stroke="none" 
	d="
M69.101219,289.382050 
	C69.330536,289.538239 69.460365,289.801575 69.522499,290.080048 
	C69.550301,290.204620 69.442307,290.359497 69.276093,290.615631 
	C69.052773,290.462189 68.921997,290.200043 68.858032,289.922516 
	C68.828827,289.795776 68.931374,289.638672 69.101219,289.382050 
z"/>
<path fill="#CAA58A" opacity="1.000000" stroke="none" 
	d="
M288.842468,276.635132 
	C288.597443,276.665558 288.498718,276.500488 288.552917,276.143494 
	C288.807220,276.111877 288.901550,276.274597 288.842468,276.635132 
z"/>
<path fill="#676767" opacity="1.000000" stroke="none" 
	d="
M608.834167,301.115082 
	C608.663025,278.855377 608.427246,257.060822 608.414307,235.266129 
	C608.406799,222.625031 608.489563,209.971298 609.075317,197.348480 
	C609.318787,192.101547 610.566956,186.796783 612.082153,181.735016 
	C615.228455,171.224319 622.934814,167.162170 633.445435,170.636871 
	C646.093933,174.818344 653.400635,184.829483 653.645020,197.207275 
	C654.338379,232.324295 660.610718,267.192505 658.023254,302.426788 
	C656.789429,319.228912 655.368896,336.020355 648.810425,351.742889 
	C646.822083,356.509521 643.846985,361.310425 640.116272,364.807220 
	C633.320312,371.177002 625.106812,369.736389 621.251221,361.303375 
	C617.906555,353.987915 615.543030,346.032867 614.030762,338.115082 
	C611.726074,326.047974 610.529968,313.769104 608.834167,301.115082 
z"/>
<path fill="#D1D3D3" opacity="1.000000" stroke="none" 
	d="
M244.011902,366.999329 
	C241.702286,369.551086 239.392654,372.102875 236.750839,375.021637 
	C232.302353,372.224243 227.071426,371.491974 221.337402,373.763947 
	C219.343475,374.553955 216.738297,373.865662 214.417236,373.751648 
	C210.188217,373.544006 205.962906,373.261078 201.736038,373.009521 
	C201.428223,373.497375 201.120392,373.985229 200.812576,374.473083 
	C200.511856,372.484314 200.435715,370.424561 199.836639,368.530151 
	C199.388504,367.112976 198.266235,365.908997 197.444153,364.610077 
	C196.640823,365.865784 195.579300,367.032135 195.105118,368.401825 
	C194.608200,369.837158 194.674973,371.467682 194.371109,374.081909 
	C188.781891,367.638184 183.370682,367.921967 177.307724,371.345428 
	C174.236725,373.079590 172.022079,370.989105 172.268341,367.194733 
	C172.634537,361.552887 172.645584,361.614075 167.012054,362.629333 
	C165.580292,362.887421 164.043503,362.725433 162.573135,362.576813 
	C157.808548,362.095306 153.004150,361.794617 148.304230,360.936188 
	C141.084717,359.617584 133.967728,357.735596 126.745682,356.434296 
	C124.470940,356.024445 121.998772,356.710266 119.436684,356.636597 
	C129.829010,347.708557 140.119476,338.789795 146.416550,325.967682 
	C153.625320,322.941864 159.791733,323.809784 165.672958,328.532501 
	C167.152664,329.720764 169.694336,329.586578 171.841080,330.294617 
	C172.002701,330.682617 172.071228,330.836182 172.130753,331.392578 
	C175.420151,340.189087 178.718567,348.582794 182.054504,357.307861 
	C183.032074,358.494568 183.972092,359.349976 184.912109,360.205414 
	C184.999039,359.198212 185.085983,358.191010 185.167099,356.712646 
	C185.176086,352.517792 185.190903,348.794037 185.438507,344.932465 
	C185.521439,343.838501 185.371552,342.882416 185.209686,341.521118 
	C185.179199,339.770111 185.160675,338.424255 185.302826,336.732758 
	C185.649002,334.595642 185.834534,332.804169 186.265289,331.015198 
	C186.510529,331.017700 187.001312,331.013641 187.250488,331.244629 
	C191.063965,334.899261 195.247406,336.703033 200.211349,335.788544 
	C206.526306,334.625183 212.799271,333.233734 219.359222,332.111145 
	C220.718155,332.932098 221.808182,333.582550 223.002289,334.548401 
	C227.487610,338.594788 231.707855,342.539246 236.294601,345.997589 
	C241.031479,349.569061 246.124649,352.667999 251.061951,355.973633 
	C250.755112,356.479218 250.448257,356.984802 249.700745,357.828217 
	C248.249802,359.525482 247.120651,360.814514 246.262085,362.263824 
	C245.375061,363.761200 244.751007,365.414337 244.011902,366.999329 
M131.871780,350.213043 
	C131.985764,350.150940 132.099747,350.088837 132.213730,350.026733 
	C132.129700,349.932434 132.045670,349.838135 131.961639,349.743866 
	C131.888565,349.851807 131.815491,349.959717 131.871780,350.213043 
z"/>
<path fill="#F1F2F2" opacity="1.000000" stroke="none" 
	d="
M146.031403,326.010559 
	C140.119476,338.789795 129.829010,347.708557 119.063148,356.657074 
	C113.400093,360.559113 112.271599,367.844635 116.359848,373.917938 
	C118.566841,377.196564 120.975052,380.339783 123.422379,383.723694 
	C117.367500,382.188263 108.307526,369.820007 107.095100,361.401306 
	C112.903122,354.807983 118.751274,348.615173 124.565880,342.391022 
	C125.680870,341.197510 126.663910,339.880707 128.120392,338.144226 
	C129.003448,336.774353 129.473923,335.881012 129.944397,334.987701 
	C129.944397,334.987701 130.050415,334.581451 130.404221,334.240997 
	C134.133194,326.293976 137.576508,318.715637 140.763153,311.030884 
	C141.038895,310.365997 139.618820,308.997833 139.021301,307.605652 
	C140.357315,305.778473 141.658478,304.302002 142.959641,302.825500 
	C143.157928,304.529999 143.760880,306.306549 143.472916,307.924500 
	C142.809967,311.649292 141.713837,315.296997 140.793503,318.976013 
	C141.162094,319.208679 141.530685,319.441345 141.899277,319.674011 
	C145.230865,315.437836 148.562439,311.201660 151.883377,307.355225 
	C149.925613,313.833527 147.978516,319.922028 146.031403,326.010559 
z"/>
<path fill="#F1F2F2" opacity="1.000000" stroke="none" 
	d="
M251.339111,356.153259 
	C246.124649,352.667999 241.031479,349.569061 236.294601,345.997589 
	C231.707855,342.539246 227.487610,338.594788 223.139297,334.232788 
	C223.441925,332.747253 223.711624,331.892700 224.228439,331.152893 
	C224.956512,331.520325 225.437469,331.773071 225.918427,332.025848 
	C230.049713,339.628754 237.686722,342.881866 244.577042,347.059875 
	C249.643967,350.132172 255.042496,352.775696 259.689941,356.386780 
	C263.900055,359.658051 265.923950,364.494629 264.989502,370.555542 
	C264.451508,371.942261 263.914124,372.887787 262.819336,374.813904 
	C261.309967,366.497375 257.688629,360.605225 251.339111,356.153259 
z"/>
<path fill="#DEDFDE" opacity="1.000000" stroke="none" 
	d="
M243.928070,367.358765 
	C244.751007,365.414337 245.375061,363.761200 246.262085,362.263824 
	C247.120651,360.814514 248.249802,359.525482 249.608246,358.110962 
	C250.690628,369.566498 243.488586,376.862701 235.745178,383.911407 
	C238.444870,378.513702 241.144562,373.115967 243.928070,367.358765 
z"/>
<path fill="#FAFAF8" opacity="1.000000" stroke="none" 
	d="
M223.981323,331.038177 
	C223.711624,331.892700 223.441925,332.747253 223.035217,333.917358 
	C221.808182,333.582550 220.718155,332.932098 219.196899,331.803833 
	C215.433304,326.244324 211.642685,321.395966 208.901993,316.013031 
	C206.341797,310.984589 204.896133,305.388702 202.813019,299.636993 
	C195.573151,306.638458 190.299103,314.413788 187.620392,324.152771 
	C186.897018,326.549438 186.458542,328.781067 186.020050,331.012726 
	C185.834534,332.804169 185.649002,334.595642 184.889069,336.718140 
	C182.021164,338.291992 179.727676,339.534729 177.372833,340.810730 
	C175.941681,338.124847 174.040726,334.557312 172.139771,330.989777 
	C172.071228,330.836182 172.002701,330.682617 171.867981,329.897034 
	C170.352661,323.990784 169.440765,318.486877 167.310425,313.503876 
	C164.960022,308.006104 162.677109,301.988861 155.892990,299.613556 
	C154.837326,299.564545 153.909149,299.755249 152.956970,300.204895 
	C152.917953,300.636597 152.902939,300.809326 152.643326,301.103912 
	C152.271362,302.152527 152.143982,303.079254 152.008362,304.376526 
	C151.964737,305.486481 151.929382,306.225983 151.894012,306.965454 
	C148.562439,311.201660 145.230865,315.437836 141.899277,319.674011 
	C141.530685,319.441345 141.162094,319.208679 140.793503,318.976013 
	C141.713837,315.296997 142.809967,311.649292 143.472916,307.924500 
	C143.760880,306.306549 143.157928,304.529999 142.959641,302.825500 
	C141.658478,304.302002 140.357315,305.778473 138.827362,307.865601 
	C137.363358,309.973816 136.128113,311.471436 134.480606,312.953552 
	C131.136841,312.583252 128.099564,312.577515 125.316246,311.733856 
	C123.811058,311.277649 122.739517,309.390717 121.472343,308.149231 
	C125.426018,304.715393 122.923004,299.953156 123.987350,295.924866 
	C126.897461,293.106628 129.807587,290.288391 133.243652,287.145386 
	C134.111481,285.844116 134.453354,284.867676 134.795227,283.891174 
	C133.874207,284.113831 132.953186,284.336456 132.032181,284.559082 
	C130.976074,284.755920 129.919983,284.952759 128.367828,284.890076 
	C128.715454,283.495270 129.450455,282.254974 130.425140,281.246246 
	C132.521729,279.076477 134.741730,277.025970 136.937439,274.584991 
	C136.963989,273.785553 136.964294,273.327728 137.063812,272.770325 
	C137.163040,272.670746 137.442764,272.642151 137.867798,272.726868 
	C142.128159,273.212097 144.859344,271.868774 146.054977,267.829071 
	C146.147064,267.703186 146.441208,267.599396 146.832428,267.676758 
	C151.180237,266.890289 152.634674,268.597015 154.237137,272.374603 
	C156.697693,278.175049 158.131805,285.141174 165.109314,288.405212 
	C166.178299,292.513367 168.628174,294.091614 172.488983,294.033325 
	C174.944855,293.996246 177.441116,294.811310 179.861069,294.594574 
	C185.038879,294.130829 190.808975,295.892212 195.023712,290.774536 
	C195.087112,290.080261 195.113510,289.683350 195.365143,289.106567 
	C196.087845,288.636871 196.585327,288.347137 197.426666,288.037476 
	C198.863678,287.035889 199.956818,286.054199 201.094925,285.043396 
	C201.139877,285.014313 201.226074,285.077881 201.539688,285.139160 
	C207.467545,286.168488 207.967331,281.259796 209.903473,278.096039 
	C211.328110,275.768066 211.945847,272.479645 216.194931,274.247162 
	C218.072693,275.848450 219.538666,277.477325 221.319641,278.611603 
	C226.231308,281.739807 231.274765,284.661102 236.441666,287.764160 
	C236.617233,287.864105 236.943573,288.102295 236.943573,288.102295 
	C237.014984,289.139587 237.086395,290.176880 237.215454,291.600464 
	C237.266754,293.420746 236.640106,295.423828 237.351532,296.199188 
	C243.379272,302.768738 249.375229,309.415131 255.936722,315.432129 
	C261.182892,320.242950 267.315643,324.153442 269.675262,331.332458 
	C270.108215,332.649689 269.610382,334.272858 269.257507,335.911804 
	C268.740479,335.841827 268.509674,335.613251 267.951111,334.921234 
	C266.092896,333.284912 264.563995,332.110413 263.035126,330.935944 
	C262.587280,330.658661 262.139435,330.381378 261.258057,329.699463 
	C253.201050,324.236237 245.577560,319.177612 237.783417,313.848572 
	C236.718765,313.065430 235.824783,312.552673 234.703918,312.004425 
	C234.477036,311.968933 234.024063,311.893097 233.921967,311.591431 
	C232.855133,310.540344 231.890427,309.790924 230.602432,308.942261 
	C227.861526,306.873901 225.443909,304.904694 222.927124,302.614044 
	C221.340942,300.374542 220.681076,296.473541 216.739563,299.891205 
	C216.495468,299.927582 216.007706,300.003052 215.707413,300.167938 
	C215.280579,302.225342 215.154037,304.117889 215.115448,306.380066 
	C215.445114,308.509460 215.686829,310.269226 215.810577,312.293365 
	C216.152435,314.046356 216.612228,315.535004 217.132538,317.380310 
	C219.455811,322.170715 221.718567,326.604431 223.981323,331.038177 
M177.788330,334.872742 
	C177.943878,334.902618 178.099426,334.932465 178.254974,334.962311 
	C178.147629,334.889587 178.040283,334.816864 177.788330,334.872742 
z"/>
<path fill="#F1F2F2" opacity="1.000000" stroke="none" 
	d="
M123.656036,296.015747 
	C122.923004,299.953156 125.426018,304.715393 121.472343,308.149231 
	C122.739517,309.390717 123.811058,311.277649 125.316246,311.733856 
	C128.099564,312.577515 131.136841,312.583252 134.304962,313.235168 
	C129.022339,317.337006 123.503098,321.141693 117.983841,324.946411 
	C115.051666,326.820251 112.189102,328.816315 109.169502,330.536743 
	C105.492157,332.631958 103.955528,331.705963 104.012238,327.476135 
	C104.121101,319.356689 106.536819,312.058899 112.388016,306.229340 
	C115.904640,302.725677 119.670746,299.472412 123.656036,296.015747 
z"/>
<path fill="#D1D3D3" opacity="1.000000" stroke="none" 
	d="
M118.244644,325.158936 
	C123.503098,321.141693 129.022339,317.337006 134.717224,313.250671 
	C136.128113,311.471436 137.363358,309.973816 138.792511,308.216309 
	C139.618820,308.997833 141.038895,310.365997 140.763153,311.030884 
	C137.576508,318.715637 134.133194,326.293976 130.439728,334.034088 
	C130.084763,333.374695 130.048111,332.581726 130.288254,331.245056 
	C130.933060,329.664459 131.301086,328.627533 131.669098,327.590637 
	C131.263702,327.488251 130.858307,327.385834 130.452896,327.283447 
	C130.302338,328.522705 130.151779,329.761963 130.001221,331.001221 
	C126.169289,329.124634 122.337364,327.248016 118.244644,325.158936 
z"/>
<path fill="#F5E3CF" opacity="1.000000" stroke="none" 
	d="
M95.389412,296.932953 
	C94.789383,296.793762 94.532326,296.560944 94.107590,295.833496 
	C93.981499,294.650269 94.023087,293.961670 94.317467,293.025146 
	C103.034073,288.717834 111.479866,284.620270 119.971504,280.620026 
	C122.919205,279.231445 125.980492,278.084015 128.883438,277.156616 
	C127.520760,278.489777 126.391022,279.743561 124.986267,280.452026 
	C119.152573,283.394135 113.170670,286.047577 107.389717,289.085815 
	C105.671524,289.988831 104.432304,291.803131 102.973625,293.199890 
	C100.559883,294.413025 98.146133,295.626160 95.389412,296.932953 
z"/>
<path fill="#F1F2F2" opacity="1.000000" stroke="none" 
	d="
M103.342003,293.096161 
	C104.432304,291.803131 105.671524,289.988831 107.389717,289.085815 
	C113.170670,286.047577 119.152573,283.394135 124.986267,280.452026 
	C126.391022,279.743561 127.520760,278.489777 128.978531,277.079590 
	C129.180084,276.672424 129.422699,276.711182 129.828293,276.763184 
	C132.459656,276.185669 134.685425,275.556152 136.911209,274.926636 
	C134.741730,277.025970 132.521729,279.076477 130.425140,281.246246 
	C129.450455,282.254974 128.715454,283.495270 127.967438,284.936157 
	C127.259689,285.503235 126.456276,285.764709 125.290611,285.723572 
	C123.824638,282.546295 122.924774,283.915710 122.038101,285.559814 
	C115.928856,288.037354 109.819626,290.514893 103.342003,293.096161 
z"/>
<path fill="#DEDFDE" opacity="1.000000" stroke="none" 
	d="
M94.055008,360.884644 
	C92.464035,356.890289 90.529861,352.987244 89.432991,348.861542 
	C88.917328,346.921936 90.012543,344.553986 90.377769,342.380157 
	C91.133636,342.386292 91.889503,342.392456 92.645363,342.398590 
	C93.762154,348.320465 94.878952,354.242371 95.675812,360.570435 
	C94.922256,360.945984 94.488632,360.915314 94.055008,360.884644 
z"/>
<path fill="#F1F2F2" opacity="1.000000" stroke="none" 
	d="
M132.204102,284.856903 
	C132.953186,284.336456 133.874207,284.113831 134.795227,283.891174 
	C134.453354,284.867676 134.111481,285.844116 133.500458,286.917664 
	C132.946213,286.394745 132.661102,285.774719 132.204102,284.856903 
z"/>
<path fill="#CDCECD" opacity="1.000000" stroke="none" 
	d="
M94.215485,361.172180 
	C94.488632,360.915314 94.922256,360.945984 95.682114,360.989655 
	C96.619682,361.801605 97.231018,362.600525 97.922180,363.698517 
	C98.001999,363.997559 98.000000,364.000000 97.998856,364.000977 
	C96.790459,363.154541 95.583206,362.307129 94.215485,361.172180 
z"/>
<path fill="#FAFAF8" opacity="1.000000" stroke="none" 
	d="
M122.337769,285.582275 
	C122.924774,283.915710 123.824638,282.546295 124.966293,285.715576 
	C124.215294,285.874969 123.426361,285.739838 122.337769,285.582275 
z"/>
<path fill="#D1D3D3" opacity="1.000000" stroke="none" 
	d="
M129.661209,335.131897 
	C129.473923,335.881012 129.003448,336.774353 128.277252,337.846100 
	C128.473694,337.108368 128.925858,336.192230 129.661209,335.131897 
z"/>
<path fill="#D9DADA" opacity="1.000000" stroke="none" 
	d="
M224.228439,331.152893 
	C221.718567,326.604431 219.455811,322.170715 217.251495,317.111725 
	C216.849457,315.000641 216.388992,313.514832 215.928528,312.028992 
	C215.686829,310.269226 215.445114,308.509460 215.290482,306.045044 
	C215.587616,303.561279 215.797668,301.782166 216.007706,300.003052 
	C216.007706,300.003052 216.495468,299.927582 217.063004,300.013916 
	C219.429138,301.045319 221.227722,301.990417 223.026306,302.935516 
	C225.443909,304.904694 227.861526,306.873901 230.713806,309.245056 
	C232.106995,310.395752 233.065521,311.144409 234.024063,311.893097 
	C234.024063,311.893097 234.477036,311.968933 234.856522,312.286835 
	C236.142029,313.109467 237.048050,313.614197 237.954071,314.118958 
	C245.577560,319.177612 253.201050,324.236237 261.025574,329.575592 
	C256.878143,329.187347 252.527191,328.533752 248.182831,327.838959 
	C247.048813,327.657593 245.842422,326.936188 244.827606,327.165009 
	C238.714294,328.543396 232.647018,330.126099 226.241394,331.833130 
	C225.437469,331.773071 224.956512,331.520325 224.228439,331.152893 
z"/>
<path fill="#DEDFDE" opacity="1.000000" stroke="none" 
	d="
M263.122742,331.273499 
	C264.563995,332.110413 266.092896,333.284912 267.782898,334.745392 
	C266.366150,333.891296 264.788239,332.751190 263.122742,331.273499 
z"/>
<path fill="#EF722A" opacity="1.000000" stroke="none" 
	d="
M167.249512,121.030334 
	C167.958649,120.715752 168.667786,120.401161 169.863571,120.307045 
	C172.336548,122.003014 174.322861,123.478508 176.335022,125.292374 
	C177.874954,127.800766 179.389008,129.970795 181.029053,132.460052 
	C182.404617,134.424362 183.654190,136.069458 185.193710,137.559113 
	C186.975998,135.894623 188.468338,134.385574 189.880508,133.289398 
	C189.522171,137.804062 189.244019,141.905884 188.779907,146.336487 
	C182.902100,168.033966 186.644638,189.361771 189.844757,210.452347 
	C192.030029,224.854568 197.129471,238.698135 205.911911,250.807434 
	C206.588120,251.739807 206.009842,253.581985 205.698822,254.984955 
	C204.961578,254.956070 204.540161,254.943527 203.935791,254.766296 
	C203.501907,254.390686 203.238174,254.197220 202.906006,253.672485 
	C200.897675,251.224045 198.944931,249.124390 196.839874,246.837967 
	C196.468857,246.413483 196.225479,246.204529 195.804260,245.736786 
	C194.429550,244.640076 193.208008,243.830872 191.993851,243.011047 
	C192.001221,243.000443 191.981995,243.015930 191.773926,242.724991 
	C188.364349,241.690735 185.162811,240.947418 181.643723,240.198517 
	C180.903122,240.209991 180.480072,240.227036 179.648468,240.182648 
	C168.182358,241.065201 161.389679,247.643463 156.398529,257.107971 
	C154.443756,257.464600 152.414032,257.327972 151.389420,258.276733 
	C145.320679,263.896301 139.250168,269.370758 130.749130,271.053528 
	C129.828110,271.235870 129.057343,272.077362 128.156433,272.476685 
	C120.634628,275.810730 113.106590,279.131287 105.546463,282.376801 
	C105.110626,282.563873 104.378777,282.061432 103.097328,281.669861 
	C105.545227,277.150208 110.859871,274.000214 108.931496,267.731262 
	C108.931145,266.528351 108.907455,265.727692 108.961952,264.667480 
	C109.114906,264.243500 109.189682,264.079010 109.557602,263.802063 
	C112.738533,261.366791 115.626328,259.044006 118.683945,256.584625 
	C113.737518,253.397247 113.772156,251.965363 117.222572,247.289810 
	C120.344902,243.058853 123.070442,238.532852 125.923965,234.106659 
	C127.452850,231.735153 129.182297,229.430969 130.303802,226.869843 
	C134.469803,217.356079 139.012589,207.942657 142.244186,198.107224 
	C144.385864,191.588943 144.601379,184.424759 145.539154,177.530670 
	C145.892548,174.932663 145.422424,172.169296 146.071930,169.675095 
	C147.900269,162.653870 150.289719,155.778412 152.105484,148.754379 
	C153.042038,145.131424 153.229477,141.314789 153.753387,137.307800 
	C153.848480,136.673004 153.945557,136.316086 154.383850,135.887695 
	C159.181946,131.551010 163.656662,127.303749 168.035431,122.959770 
	C168.224960,122.771736 167.531601,121.693748 167.249512,121.030334 
z"/>
<path fill="#E9904C" opacity="1.000000" stroke="none" 
	d="
M204.118774,254.930984 
	C204.540161,254.943527 204.961578,254.956070 205.874237,255.280304 
	C208.118713,260.103638 211.451538,262.617249 216.035629,264.114441 
	C227.469284,267.848785 237.660538,274.046143 247.522614,280.796295 
	C248.869659,281.718292 250.471100,282.765289 251.110046,284.145477 
	C255.657013,293.967316 265.194580,296.771606 273.981140,300.543243 
	C275.201904,301.067322 277.297607,300.422485 278.626221,299.675140 
	C284.315765,296.474854 286.323273,291.011719 283.683624,283.260040 
	C280.541809,274.033691 276.607758,265.074005 272.920898,256.037964 
	C271.500275,252.556244 270.655792,248.201279 268.062225,245.979828 
	C263.733002,242.271820 261.313141,237.640366 258.431152,233.047455 
	C253.516464,225.215073 247.506805,218.023605 243.078384,209.948029 
	C239.993469,204.322510 236.583115,198.134857 238.791504,190.635651 
	C236.873169,181.707382 235.304840,173.091202 233.009598,164.673233 
	C232.093781,161.314438 229.482895,158.440643 227.807892,155.259583 
	C226.163635,152.136917 224.727890,148.904465 223.200638,145.720200 
	C230.616180,152.392715 234.899536,160.765396 236.958160,170.457733 
	C239.508423,182.464706 241.752319,194.576141 245.156326,206.345184 
	C246.770584,211.926422 250.187073,217.268539 253.796234,221.939163 
	C265.947723,237.664322 276.910095,254.028503 284.459686,272.805115 
	C285.339508,275.551392 285.941589,278.137634 286.473328,281.439117 
	C286.737640,283.160278 287.072388,284.166199 287.407135,285.172150 
	C287.449890,286.795807 287.492615,288.419464 287.240997,290.667450 
	C286.825134,292.345764 286.703613,293.399750 286.582092,294.453735 
	C285.847961,296.108612 285.113831,297.763489 283.878082,299.786163 
	C282.925873,300.793396 282.475342,301.432861 282.024811,302.072327 
	C282.024811,302.072327 281.748566,302.263885 281.277466,302.311096 
	C280.166565,302.813599 279.526733,303.268860 278.886932,303.724121 
	C276.589874,303.737854 274.292786,303.751556 271.393555,303.407043 
	C265.948486,300.585052 261.154510,298.017792 256.243622,295.697906 
	C253.465378,294.385498 250.495132,293.479492 247.611374,292.390411 
	C247.263351,292.286835 246.915329,292.183228 246.200287,291.657349 
	C244.671112,290.134979 243.508957,289.034973 242.512329,288.091614 
	C243.699982,286.926758 244.695007,285.950806 245.601776,284.670166 
	C237.578033,276.387817 227.631897,272.104248 217.094727,268.909851 
	C217.090805,268.920288 217.090454,268.895233 216.891418,268.590881 
	C213.801300,267.478271 210.910217,266.669983 207.896988,265.672913 
	C207.572968,265.261017 207.352997,265.057526 207.103546,264.473694 
	C206.101044,261.026215 205.109909,257.978607 204.118774,254.930984 
z"/>
<path fill="#FB9137" opacity="1.000000" stroke="none" 
	d="
M222.986938,145.467316 
	C224.727890,148.904465 226.163635,152.136917 227.807892,155.259583 
	C229.482895,158.440643 232.093781,161.314438 233.009598,164.673233 
	C235.304840,173.091202 236.873169,181.707382 238.487823,190.524567 
	C235.658539,189.974426 233.074554,189.143768 229.984039,188.150284 
	C227.721039,182.243973 225.241409,175.325806 222.431824,168.544357 
	C218.247650,158.445114 211.489944,149.157089 212.970978,137.214722 
	C212.996201,137.079193 213.017136,136.804306 213.017136,136.804306 
	C216.269180,139.607681 219.521225,142.411057 222.986938,145.467316 
z"/>
<path fill="#F89E5E" opacity="1.000000" stroke="none" 
	d="
M176.309174,124.954002 
	C174.322861,123.478508 172.336548,122.003014 170.155075,120.256744 
	C173.037048,116.080818 176.114166,112.175667 179.632294,108.564438 
	C180.456802,110.179474 180.840286,111.500595 181.218628,113.235817 
	C181.819458,119.158516 182.336777,124.679413 183.096832,130.166672 
	C183.275879,131.459305 184.273087,132.638580 184.914154,134.258148 
	C184.924179,135.669037 184.913971,136.691803 184.903778,137.714554 
	C183.654190,136.069458 182.404617,134.424362 181.027603,132.082108 
	C179.369843,129.241302 177.839508,127.097656 176.309174,124.954002 
z"/>
<path fill="#FB9137" opacity="1.000000" stroke="none" 
	d="
M188.965851,146.007690 
	C189.244019,141.905884 189.522171,137.804062 189.880157,132.905731 
	C190.216415,130.585526 190.472855,129.061859 190.657028,127.967560 
	C195.559814,129.033325 199.800003,129.955048 204.040207,130.876770 
	C205.266144,131.686890 206.492081,132.497025 207.945526,133.894836 
	C208.463669,135.302002 208.754333,136.121490 208.769531,137.106903 
	C207.131042,136.645828 205.818192,135.665146 204.394852,135.463196 
	C201.111740,134.997391 197.635315,134.295975 194.535843,135.001526 
	C193.452560,135.248154 192.697388,139.356689 192.771942,141.670029 
	C192.870178,144.718231 191.890640,146.004349 188.965851,146.007690 
z"/>
<path fill="#E9904C" opacity="1.000000" stroke="none" 
	d="
M203.812912,130.628784 
	C199.800003,129.955048 195.559814,129.033325 190.657028,127.967560 
	C190.472855,129.061859 190.216415,130.585526 189.960327,132.492859 
	C188.468338,134.385574 186.975998,135.894623 185.193726,137.559113 
	C184.913971,136.691803 184.924179,135.669037 184.940613,133.853058 
	C185.630096,129.588196 186.313354,126.116554 186.996597,122.644905 
	C192.526276,125.223534 198.055939,127.802162 203.812912,130.628784 
M188.531586,126.501465 
	C188.531586,126.501465 188.489029,126.517937 188.531586,126.501465 
z"/>
<path fill="#E26837" opacity="1.000000" stroke="none" 
	d="
M166.911987,121.144264 
	C167.531601,121.693748 168.224960,122.771736 168.035431,122.959770 
	C163.656662,127.303749 159.181946,131.551010 154.449066,135.549011 
	C155.691254,132.350021 157.209457,129.418243 158.812378,126.476845 
	C158.897095,126.467216 158.989883,126.324127 159.313644,126.266663 
	C160.183563,125.854668 160.729721,125.500145 161.392776,124.943527 
	C161.364243,124.322746 161.218796,123.904060 161.073349,123.485374 
	C161.073349,123.485374 161.347855,123.173653 161.485992,123.011993 
	C163.274231,122.319626 164.924332,121.788910 166.911987,121.144264 
z"/>
<path fill="#F3AD74" opacity="1.000000" stroke="none" 
	d="
M186.865295,122.365257 
	C186.313354,126.116554 185.630096,129.588196 184.920380,133.464935 
	C184.273087,132.638580 183.275879,131.459305 183.096832,130.166672 
	C182.336777,124.679413 181.819458,119.158516 181.479034,113.424362 
	C183.142883,114.906876 184.541168,116.614937 185.939453,118.322990 
	C186.204300,119.577202 186.469147,120.831406 186.865295,122.365257 
z"/>
<path fill="#FDC593" opacity="1.000000" stroke="none" 
	d="
M185.947144,117.885895 
	C184.541168,116.614937 183.142883,114.906876 181.484192,113.010269 
	C180.840286,111.500595 180.456802,110.179474 179.967087,108.535721 
	C179.766495,107.586868 179.672134,106.960648 179.443726,105.444847 
	C185.587524,107.899841 185.092804,113.054420 185.947144,117.885895 
z"/>
<path fill="#E9904C" opacity="1.000000" stroke="none" 
	d="
M209.044983,136.940979 
	C208.754333,136.121490 208.463669,135.302002 208.134033,134.154907 
	C209.613342,134.645096 211.131622,135.462906 212.833527,136.542511 
	C213.017136,136.804306 212.996201,137.079193 212.585129,137.130844 
	C211.131027,137.101990 210.088013,137.021484 209.044983,136.940979 
z"/>
<path fill="#E1AD7B" opacity="1.000000" stroke="none" 
	d="
M245.690033,284.974884 
	C244.695007,285.950806 243.699982,286.926758 242.512329,288.091614 
	C243.508957,289.034973 244.671112,290.134979 245.961197,291.525696 
	C243.274551,290.602081 240.459991,289.387817 237.294495,288.137939 
	C236.943573,288.102295 236.617233,287.864105 236.291016,287.471619 
	C231.902222,284.110107 227.839645,281.141083 223.777054,278.172058 
	C224.023727,277.814819 224.270416,277.457581 224.517090,277.100342 
	C231.574738,279.725189 238.632385,282.350037 245.690033,284.974884 
z"/>
<path fill="#E1AD7B" opacity="1.000000" stroke="none" 
	d="
M247.831238,292.639832 
	C250.495132,293.479492 253.465378,294.385498 256.243622,295.697906 
	C261.154510,298.017792 265.948486,300.585052 270.970459,303.321777 
	C263.450043,300.026276 255.750580,296.457764 247.831238,292.639832 
z"/>
<path fill="#E1AD7B" opacity="1.000000" stroke="none" 
	d="
M287.514709,284.853088 
	C287.072388,284.166199 286.737640,283.160278 286.523499,281.824493 
	C286.970123,282.507782 287.296204,283.520905 287.514709,284.853088 
z"/>
<path fill="#E1AD7B" opacity="1.000000" stroke="none" 
	d="
M286.807922,294.217804 
	C286.703613,293.399750 286.825134,292.345764 287.184082,291.070740 
	C287.292236,291.893738 287.162994,292.937805 286.807922,294.217804 
z"/>
<path fill="#E1AD7B" opacity="1.000000" stroke="none" 
	d="
M279.193726,303.734680 
	C279.526733,303.268860 280.166565,302.813599 281.119934,302.369751 
	C280.789185,302.835846 280.144836,303.290558 279.193726,303.734680 
z"/>
<path fill="#E1AD7B" opacity="1.000000" stroke="none" 
	d="
M282.321930,301.993347 
	C282.475342,301.432861 282.925873,300.793396 283.666138,300.060028 
	C283.510223,300.615509 283.064636,301.264923 282.321930,301.993347 
z"/>
<path fill="#8A3632" opacity="1.000000" stroke="none" 
	d="
M71.756332,284.421509 
	C72.121033,281.975922 72.423820,279.892242 72.758850,277.419037 
	C77.564720,260.485840 88.050812,246.881912 96.112747,231.650269 
	C101.182442,221.616943 106.150352,211.911072 111.043739,202.167755 
	C112.307602,199.651276 113.337486,197.017288 114.874191,194.459610 
	C113.957077,198.819366 113.172806,203.413895 111.224792,207.446213 
	C105.271423,219.769470 98.961884,231.924377 92.611748,244.050964 
	C88.309120,252.267502 83.042130,260.045929 79.449127,268.545624 
	C76.675537,275.106903 74.359184,282.178253 75.616623,289.796204 
	C75.867706,291.317352 73.857231,293.211823 72.836815,294.497192 
	C72.290436,291.175079 71.796814,288.289917 71.303192,285.404755 
	C71.433601,285.197662 71.564018,284.990540 71.756332,284.421509 
z"/>
<path fill="#8A3632" opacity="1.000000" stroke="none" 
	d="
M72.455811,305.227386 
	C72.227097,303.922150 71.998390,302.616882 71.799057,300.845032 
	C72.187805,299.953278 72.547165,299.528168 73.300339,299.066956 
	C75.770432,298.151489 78.537056,297.830750 79.788681,296.284058 
	C83.050896,292.252777 87.049187,290.776459 91.966309,291.300659 
	C92.017059,292.130554 92.060677,292.602966 91.753220,293.256378 
	C88.609955,294.861572 85.346848,295.780762 83.143028,297.835876 
	C80.293808,300.492859 78.290520,304.056976 75.681404,307.060181 
	C74.445152,306.335724 73.450478,305.781555 72.455811,305.227386 
z"/>
<path fill="#CDCECD" opacity="1.000000" stroke="none" 
	d="
M75.922989,307.230499 
	C78.290520,304.056976 80.293808,300.492859 83.143028,297.835876 
	C85.346848,295.780762 88.609955,294.861572 92.075729,293.322815 
	C93.187775,293.229889 93.626228,293.251495 94.064682,293.273102 
	C94.023087,293.961670 93.981499,294.650269 93.895920,295.682556 
	C88.091896,296.455780 84.124397,299.397827 81.265724,304.376740 
	C80.390961,305.900269 78.341919,306.749603 76.440414,307.752380 
	C76.050194,307.597137 75.922989,307.230499 75.922989,307.230499 
z"/>
<path fill="#676767" opacity="1.000000" stroke="none" 
	d="
M72.906540,299.103058 
	C72.547165,299.528168 72.187805,299.953278 71.543091,300.416931 
	C71.134979,297.909698 71.012230,295.363953 70.825653,292.387695 
	C70.859482,289.969147 70.957138,287.981049 71.179001,285.698853 
	C71.796814,288.289917 72.290436,291.175079 72.806557,294.913086 
	C72.854881,296.878326 72.880707,297.990692 72.906540,299.103058 
z"/>
<path fill="#676767" opacity="1.000000" stroke="none" 
	d="
M75.681404,307.060181 
	C75.922989,307.230499 76.050194,307.597137 76.090042,307.786743 
	C75.300156,308.883759 74.470421,309.791138 72.798241,311.619781 
	C72.552742,308.971191 72.411331,307.445587 72.362869,305.573669 
	C73.450478,305.781555 74.445152,306.335724 75.681404,307.060181 
z"/>
<path fill="#992721" opacity="1.000000" stroke="none" 
	d="
M73.300339,299.066956 
	C72.880707,297.990692 72.854881,296.878326 72.859314,295.350037 
	C73.857231,293.211823 75.867706,291.317352 75.616623,289.796204 
	C74.359184,282.178253 76.675537,275.106903 79.449127,268.545624 
	C83.042130,260.045929 88.309120,252.267502 92.611748,244.050964 
	C98.961884,231.924377 105.271423,219.769470 111.224792,207.446213 
	C113.172806,203.413895 113.957077,198.819366 115.081482,194.175278 
	C115.424095,192.417953 115.958778,190.967331 116.685814,189.249359 
	C122.645912,186.749939 122.440704,180.711502 124.678383,176.332031 
	C128.504929,168.842941 131.690430,161.024155 135.078751,153.314636 
	C136.063202,151.074692 136.821457,148.735336 137.631287,146.044876 
	C137.579147,145.648193 137.634521,145.630615 138.025787,145.648743 
	C145.858017,142.774780 148.686111,135.691223 152.830719,129.803925 
	C152.830719,129.803925 152.894699,129.817108 153.172958,129.752747 
	C153.921021,129.054382 154.390823,128.420380 154.860626,127.786377 
	C155.469009,127.290627 156.077393,126.794884 157.332764,126.288368 
	C158.229050,126.347221 158.478348,126.416847 158.727661,126.486465 
	C157.209457,129.418243 155.691254,132.350021 154.107849,135.620483 
	C153.945557,136.316086 153.848480,136.673004 153.483917,137.534927 
	C152.314056,139.795975 151.027603,141.458328 150.572662,143.323502 
	C147.933578,154.143204 144.731140,164.900833 143.141846,175.885284 
	C140.022690,197.443298 133.793854,217.552170 121.514046,235.856979 
	C115.087677,245.436371 108.297157,254.512268 100.108521,262.594421 
	C98.896950,263.790253 98.164017,265.471008 97.209648,266.927429 
	C97.580246,267.253723 97.950851,267.580048 98.321449,267.906342 
	C100.551964,266.608673 102.694672,265.105774 105.049393,264.098450 
	C106.259239,263.580902 107.847313,263.947479 109.264465,263.914520 
	C109.189682,264.079010 109.114906,264.243500 108.693588,264.847534 
	C107.943275,266.270355 107.539520,267.253632 106.911819,268.485931 
	C101.778305,276.137695 96.868744,283.540405 91.959183,290.943146 
	C87.049187,290.776459 83.050896,292.252777 79.788681,296.284058 
	C78.537056,297.830750 75.770432,298.151489 73.300339,299.066956 
z"/>
<path fill="#8A3632" opacity="1.000000" stroke="none" 
	d="
M152.503418,129.893829 
	C148.686111,135.691223 145.858017,142.774780 138.045227,145.670380 
	C142.507645,140.443832 147.341888,135.213791 152.503418,129.893829 
z"/>
<path fill="#8A3632" opacity="1.000000" stroke="none" 
	d="
M154.600098,127.926041 
	C154.390823,128.420380 153.921021,129.054382 153.150757,129.776703 
	C153.346725,129.265244 153.843140,128.665482 154.600098,127.926041 
z"/>
<path fill="#8A3632" opacity="1.000000" stroke="none" 
	d="
M160.787277,123.637749 
	C161.218796,123.904060 161.364243,124.322746 160.954437,124.820160 
	C160.109390,124.812187 159.819595,124.725471 159.529800,124.638763 
	C159.853607,124.355888 160.177414,124.073006 160.787277,123.637749 
z"/>
<path fill="#8A3632" opacity="1.000000" stroke="none" 
	d="
M158.812378,126.476837 
	C158.478348,126.416847 158.229050,126.347221 157.606537,126.173187 
	C157.630188,125.717400 158.027084,125.366020 158.699020,125.308395 
	C158.979340,125.842812 158.984619,126.083473 158.989883,126.324127 
	C158.989883,126.324127 158.897095,126.467216 158.812378,126.476837 
z"/>
<path fill="#992721" opacity="1.000000" stroke="none" 
	d="
M159.313644,126.266663 
	C158.984619,126.083473 158.979340,125.842812 158.961212,125.240952 
	C158.948364,124.879761 159.225647,124.722115 159.377716,124.680435 
	C159.819595,124.725471 160.109390,124.812187 160.837540,125.022255 
	C160.729721,125.500145 160.183563,125.854668 159.313644,126.266663 
z"/>
<path fill="#D9DADA" opacity="1.000000" stroke="none" 
	d="
M187.905273,323.987793 
	C190.299103,314.413788 195.573151,306.638458 202.813019,299.636993 
	C204.896133,305.388702 206.341797,310.984589 208.901993,316.013031 
	C211.642685,321.395966 215.433304,326.244324 218.928009,331.633301 
	C212.799271,333.233734 206.526306,334.625183 200.211349,335.788544 
	C195.247406,336.703033 191.063965,334.899261 187.261475,330.847656 
	C187.317276,328.142426 187.611267,326.065094 187.905273,323.987793 
z"/>
<path fill="#D9DADA" opacity="1.000000" stroke="none" 
	d="
M152.887924,300.982056 
	C152.902939,300.809326 152.917953,300.636597 153.337509,300.208801 
	C154.501526,299.920227 155.261017,299.886749 156.020493,299.853241 
	C162.677109,301.988861 164.960022,308.006104 167.310425,313.503876 
	C169.440765,318.486877 170.352661,323.990784 171.774872,329.662598 
	C169.694336,329.586578 167.152664,329.720764 165.672958,328.532501 
	C159.791733,323.809784 153.625320,322.941864 146.416550,325.967682 
	C147.978516,319.922028 149.925613,313.833527 151.883362,307.355225 
	C151.929382,306.225983 151.964737,305.486481 152.188446,304.109558 
	C152.547150,302.642090 152.717545,301.812073 152.887924,300.982056 
z"/>
<path fill="#F1F2F2" opacity="1.000000" stroke="none" 
	d="
M172.130753,331.392578 
	C174.040726,334.557312 175.941681,338.124847 177.372833,340.810730 
	C179.727676,339.534729 182.021164,338.291992 184.728409,337.063843 
	C185.160675,338.424255 185.179199,339.770111 185.164536,341.913147 
	C185.156128,343.497040 185.180908,344.283661 185.205704,345.070312 
	C185.190903,348.794037 185.176086,352.517792 184.769928,356.669739 
	C183.591385,357.057495 182.804184,357.016998 182.016983,356.976501 
	C178.718567,348.582794 175.420151,340.189087 172.130753,331.392578 
z"/>
<path fill="#DEDFDE" opacity="1.000000" stroke="none" 
	d="
M182.054504,357.307831 
	C182.804184,357.016998 183.591385,357.057495 184.775757,357.140869 
	C185.085983,358.191010 184.999039,359.198212 184.912109,360.205414 
	C183.972092,359.349976 183.032074,358.494568 182.054504,357.307831 
z"/>
<path fill="#F1F2F2" opacity="1.000000" stroke="none" 
	d="
M187.620392,324.152771 
	C187.611267,326.065094 187.317276,328.142426 187.012299,330.616699 
	C187.001312,331.013641 186.510529,331.017700 186.265289,331.015198 
	C186.458542,328.781067 186.897018,326.549438 187.620392,324.152771 
z"/>
<path fill="#DEDFDE" opacity="1.000000" stroke="none" 
	d="
M185.438507,344.932465 
	C185.180908,344.283661 185.156128,343.497040 185.176514,342.318359 
	C185.371552,342.882416 185.521439,343.838501 185.438507,344.932465 
z"/>
<path fill="#CDCECD" opacity="1.000000" stroke="none" 
	d="
M131.807098,350.140350 
	C131.815491,349.959717 131.888565,349.851807 131.961639,349.743866 
	C132.045670,349.838135 132.129700,349.932434 132.213730,350.026733 
	C132.099747,350.088837 131.985764,350.150940 131.807098,350.140350 
z"/>
<path fill="#D9784C" opacity="1.000000" stroke="none" 
	d="
M91.966309,291.300659 
	C96.868744,283.540405 101.778305,276.137695 107.207184,268.453491 
	C108.120384,268.159149 108.514275,268.146332 108.908157,268.133514 
	C110.859871,274.000214 105.545227,277.150208 103.097328,281.669861 
	C104.378777,282.061432 105.110626,282.563873 105.546463,282.376801 
	C113.106590,279.131287 120.634628,275.810730 128.156433,272.476685 
	C129.057343,272.077362 129.828110,271.235870 130.749130,271.053528 
	C139.250168,269.370758 145.320679,263.896301 151.389420,258.276733 
	C152.414032,257.327972 154.443756,257.464600 156.307159,257.380005 
	C156.343079,258.391388 156.080917,259.122528 155.644867,260.067871 
	C155.292755,260.794037 155.114532,261.305939 154.721176,261.860168 
	C154.506058,261.902496 154.077194,261.993774 153.830750,262.063049 
	C153.350296,262.373077 153.116287,262.613861 152.633102,263.077393 
	C150.403030,264.733215 148.422119,266.166290 146.441208,267.599396 
	C146.441208,267.599396 146.147064,267.703186 145.697876,267.851166 
	C142.646713,269.546814 140.044739,271.094482 137.442764,272.642151 
	C137.442764,272.642151 137.163040,272.670746 136.693176,272.753540 
	C133.956436,274.127930 131.689560,275.419556 129.422699,276.711182 
	C129.422699,276.711182 129.180084,276.672424 129.084991,276.749451 
	C125.980492,278.084015 122.919205,279.231445 119.971504,280.620026 
	C111.479866,284.620270 103.034073,288.717834 94.317474,293.025146 
	C93.626228,293.251495 93.187775,293.229889 92.426804,293.141846 
	C92.060677,292.602966 92.017059,292.130554 91.966309,291.300659 
z"/>
<path fill="#FDDAB2" opacity="1.000000" stroke="none" 
	d="
M245.601776,284.670166 
	C238.632385,282.350037 231.574738,279.725189 224.517090,277.100342 
	C224.270416,277.457581 224.023727,277.814819 223.777054,278.172058 
	C227.839645,281.141083 231.902222,284.110107 236.115448,287.371704 
	C231.274765,284.661102 226.231308,281.739807 221.319641,278.611603 
	C219.538666,277.477325 218.072693,275.848450 216.348984,273.898254 
	C216.522873,271.867310 216.810745,270.383331 217.098633,268.899384 
	C227.631897,272.104248 237.578033,276.387817 245.601776,284.670166 
z"/>
<path fill="#E1AD7B" opacity="1.000000" stroke="none" 
	d="
M197.082794,288.057373 
	C196.585327,288.347137 196.087845,288.636871 195.013214,289.094727 
	C192.959625,289.869720 191.483200,290.476593 189.663513,291.115631 
	C184.195541,291.179871 179.070831,291.211884 173.736328,290.984558 
	C172.310623,290.287079 171.094696,289.848938 169.610352,289.220703 
	C168.369400,288.552734 167.396881,288.074860 166.308075,287.280029 
	C164.345627,284.661560 162.499466,282.360046 161.051270,280.070496 
	C163.733353,281.277557 166.250214,282.171204 168.259857,283.722076 
	C175.509415,289.316681 187.580200,289.565155 195.364700,283.927490 
	C198.917450,281.430573 202.135223,279.037201 205.226227,276.995850 
	C204.459808,278.619171 203.820160,279.890503 203.120697,281.477295 
	C202.449295,282.887817 201.837677,283.982849 201.226074,285.077881 
	C201.226074,285.077881 201.139877,285.014313 200.771851,285.098022 
	C199.296799,286.140289 198.189804,287.098846 197.082794,288.057373 
z"/>
<path fill="#F5E3CF" opacity="1.000000" stroke="none" 
	d="
M160.653320,280.058563 
	C162.499466,282.360046 164.345627,284.661560 165.959747,287.401367 
	C165.494186,287.912170 165.260666,287.984619 165.027130,288.057068 
	C158.131805,285.141174 156.697693,278.175049 154.237137,272.374603 
	C152.634674,268.597015 151.180237,266.890289 146.832428,267.676758 
	C148.422119,266.166290 150.403030,264.733215 152.879333,263.007629 
	C153.608887,262.474670 153.843033,262.234222 154.077179,261.993774 
	C154.077194,261.993774 154.506058,261.902496 154.762146,262.265686 
	C155.674149,265.734039 156.330063,268.839172 157.004272,272.313721 
	C157.989883,274.304016 158.957184,275.924896 159.852112,277.816498 
	C160.070938,278.744324 160.362122,279.401459 160.653320,280.058563 
z"/>
<path fill="#F1F2F2" opacity="1.000000" stroke="none" 
	d="
M165.109314,288.405212 
	C165.260666,287.984619 165.494186,287.912170 166.076050,287.718353 
	C167.396881,288.074860 168.369400,288.552734 169.739899,289.468872 
	C171.407272,290.352753 172.676697,290.798340 173.946106,291.243927 
	C179.070831,291.211884 184.195541,291.179871 189.940948,291.248596 
	C192.036667,291.256866 193.511703,291.164398 194.986725,291.071960 
	C190.808975,295.892212 185.038879,294.130829 179.861069,294.594574 
	C177.441116,294.811310 174.944855,293.996246 172.488983,294.033325 
	C168.628174,294.091614 166.178299,292.513367 165.109314,288.405212 
z"/>
<path fill="#F1F2F2" opacity="1.000000" stroke="none" 
	d="
M201.539688,285.139160 
	C201.837677,283.982849 202.449295,282.887817 203.467865,281.418884 
	C205.182434,278.996918 206.490036,276.948822 207.842712,274.539429 
	C207.930496,273.451294 207.973190,272.724518 208.306213,271.788513 
	C211.427856,270.684601 214.259155,269.789917 217.090454,268.895203 
	C217.090454,268.895233 217.090805,268.920288 217.094727,268.909851 
	C216.810745,270.383331 216.522873,271.867310 216.080948,273.700134 
	C211.945847,272.479645 211.328110,275.768066 209.903473,278.096039 
	C207.967331,281.259796 207.467545,286.168488 201.539688,285.139160 
z"/>
<path fill="#F5E3CF" opacity="1.000000" stroke="none" 
	d="
M137.867798,272.726868 
	C140.044739,271.094482 142.646713,269.546814 145.605789,267.977051 
	C144.859344,271.868774 142.128159,273.212097 137.867798,272.726868 
z"/>
<path fill="#F5E3CF" opacity="1.000000" stroke="none" 
	d="
M129.828278,276.763184 
	C131.689560,275.419556 133.956436,274.127930 136.593948,272.853119 
	C136.964294,273.327728 136.963989,273.785553 136.937439,274.584991 
	C134.685425,275.556152 132.459656,276.185669 129.828278,276.763184 
z"/>
<path fill="#F1F2F2" opacity="1.000000" stroke="none" 
	d="
M222.927124,302.614044 
	C221.227722,301.990417 219.429138,301.045319 217.307098,299.977539 
	C220.681076,296.473541 221.340942,300.374542 222.927124,302.614044 
z"/>
<path fill="#F1F2F2" opacity="1.000000" stroke="none" 
	d="
M215.707413,300.167938 
	C215.797668,301.782166 215.587616,303.561279 215.202515,305.675415 
	C215.154037,304.117889 215.280579,302.225342 215.707413,300.167938 
z"/>
<path fill="#F5E3CF" opacity="1.000000" stroke="none" 
	d="
M195.023712,290.774536 
	C193.511703,291.164398 192.036667,291.256866 190.284210,291.216370 
	C191.483200,290.476593 192.959625,289.869720 194.787964,289.274658 
	C195.113510,289.683350 195.087112,290.080261 195.023712,290.774536 
z"/>
<path fill="#F1F2F2" opacity="1.000000" stroke="none" 
	d="
M215.810577,312.293365 
	C216.388992,313.514832 216.849457,315.000641 217.190979,316.755066 
	C216.612228,315.535004 216.152435,314.046356 215.810577,312.293365 
z"/>
<path fill="#F5E3CF" opacity="1.000000" stroke="none" 
	d="
M197.426666,288.037476 
	C198.189804,287.098846 199.296799,286.140289 200.726898,285.127136 
	C199.956818,286.054199 198.863678,287.035889 197.426666,288.037476 
z"/>
<path fill="#F1F2F2" opacity="1.000000" stroke="none" 
	d="
M233.921967,311.591431 
	C233.065521,311.144409 232.106995,310.395752 231.037079,309.344269 
	C231.890427,309.790924 232.855133,310.540344 233.921967,311.591431 
z"/>
<path fill="#F1F2F2" opacity="1.000000" stroke="none" 
	d="
M155.892990,299.613556 
	C155.261017,299.886749 154.501526,299.920227 153.361511,299.949829 
	C153.909149,299.755249 154.837326,299.564545 155.892990,299.613556 
z"/>
<path fill="#F1F2F2" opacity="1.000000" stroke="none" 
	d="
M152.643326,301.103912 
	C152.717545,301.812073 152.547150,302.642090 152.196686,303.739075 
	C152.143982,303.079254 152.271362,302.152527 152.643326,301.103912 
z"/>
<path fill="#F1F2F2" opacity="1.000000" stroke="none" 
	d="
M237.783417,313.848572 
	C237.048050,313.614197 236.142029,313.109467 235.083405,312.322327 
	C235.824783,312.552673 236.718765,313.065430 237.783417,313.848572 
z"/>
<path fill="#F1F2F2" opacity="1.000000" stroke="none" 
	d="
M177.860626,334.808441 
	C178.040283,334.816864 178.147629,334.889587 178.254974,334.962311 
	C178.099426,334.932465 177.943878,334.902618 177.860626,334.808441 
z"/>
<path fill="#C3C8CC" opacity="1.000000" stroke="none" 
	d="
M130.000610,331.000610 
	C130.151779,329.761963 130.302338,328.522705 130.452896,327.283447 
	C130.858307,327.385834 131.263702,327.488251 131.669098,327.590637 
	C131.301086,328.627533 130.933060,329.664459 130.281921,330.850067 
	C129.998779,330.998779 130.000000,331.000000 130.000610,331.000610 
z"/>
<path fill="#FC862C" opacity="1.000000" stroke="none" 
	d="
M208.769531,137.106903 
	C210.088013,137.021484 211.131027,137.101990 212.559906,137.266373 
	C211.489944,149.157089 218.247650,158.445114 222.431824,168.544357 
	C225.241409,175.325806 227.721039,182.243973 229.984039,188.150284 
	C233.074554,189.143768 235.658539,189.974426 238.546234,190.916168 
	C236.583115,198.134857 239.993469,204.322510 243.078384,209.948029 
	C247.506805,218.023605 253.516464,225.215073 258.431152,233.047455 
	C261.313141,237.640366 263.733002,242.271820 268.062225,245.979828 
	C270.655792,248.201279 271.500275,252.556244 272.920898,256.037964 
	C276.607758,265.074005 280.541809,274.033691 283.683624,283.260040 
	C286.323273,291.011719 284.315765,296.474854 278.626221,299.675140 
	C277.297607,300.422485 275.201904,301.067322 273.981140,300.543243 
	C265.194580,296.771606 255.657013,293.967316 251.110046,284.145477 
	C250.471100,282.765289 248.869659,281.718292 247.522614,280.796295 
	C237.660538,274.046143 227.469284,267.848785 216.035629,264.114441 
	C211.451538,262.617249 208.118713,260.103638 206.190063,255.296631 
	C206.009842,253.581985 206.588120,251.739807 205.911911,250.807434 
	C197.129471,238.698135 192.030029,224.854568 189.844757,210.452347 
	C186.644638,189.361771 182.902100,168.033966 188.779892,146.336487 
	C191.890640,146.004349 192.870178,144.718231 192.771942,141.670029 
	C192.697388,139.356689 193.452560,135.248154 194.535843,135.001526 
	C197.635315,134.295975 201.111740,134.997391 204.394852,135.463196 
	C205.818192,135.665146 207.131042,136.645828 208.769531,137.106903 
z"/>
<path fill="#F3AD74" opacity="1.000000" stroke="none" 
	d="
M161.051270,280.070496 
	C160.362122,279.401459 160.070938,278.744324 159.801163,277.432709 
	C158.877045,275.166901 157.931519,273.555634 156.985977,271.944336 
	C156.330063,268.839172 155.674149,265.734039 154.977264,262.223358 
	C155.114532,261.305939 155.292755,260.794037 156.005188,260.193817 
	C160.349014,262.579132 162.849609,261.999817 164.019852,257.234161 
	C164.393997,255.710602 165.419373,254.164597 166.555435,253.042664 
	C170.966721,248.686096 175.542480,244.496078 180.057037,240.244080 
	C180.480072,240.227036 180.903122,240.209991 181.844177,240.481781 
	C185.568802,241.519043 188.775406,242.267487 191.981995,243.015930 
	C191.981995,243.015930 192.001221,243.000443 192.095093,243.333618 
	C193.445129,244.452621 194.701294,245.238464 195.957443,246.024307 
	C196.225479,246.204529 196.468857,246.413483 196.928986,247.167542 
	C199.100800,249.796341 201.031219,251.908783 202.961624,254.021240 
	C203.238174,254.197220 203.501907,254.390686 203.935806,254.766296 
	C205.109909,257.978607 206.101044,261.026215 206.731400,264.503906 
	C204.575562,263.958099 202.780502,262.982178 200.950989,261.649261 
	C200.860306,260.577301 200.804062,259.862366 200.738724,258.815247 
	C199.795395,257.346649 198.861191,256.210205 197.643463,254.891296 
	C194.296799,253.034241 191.233627,251.359695 187.928955,249.411285 
	C184.294754,247.514160 180.968521,246.971603 177.477951,249.788666 
	C174.114136,252.236557 171.118500,254.638550 167.861862,257.292633 
	C166.818588,260.991180 165.121292,264.523224 165.433899,267.867340 
	C166.219513,276.271179 176.734512,282.997131 185.837173,281.561432 
	C189.284393,281.017731 192.815079,280.040863 195.029724,284.031036 
	C187.580200,289.565155 175.509415,289.316681 168.259857,283.722076 
	C166.250214,282.171204 163.733353,281.277557 161.051270,280.070496 
z"/>
<path fill="#E26837" opacity="1.000000" stroke="none" 
	d="
M109.557602,263.802063 
	C107.847313,263.947479 106.259239,263.580902 105.049393,264.098450 
	C102.694672,265.105774 100.551964,266.608673 98.321449,267.906342 
	C97.950851,267.580048 97.580246,267.253723 97.209648,266.927429 
	C98.164017,265.471008 98.896950,263.790253 100.108521,262.594421 
	C108.297157,254.512268 115.087677,245.436371 121.514046,235.856979 
	C133.793854,217.552170 140.022690,197.443298 143.141846,175.885284 
	C144.731140,164.900833 147.933578,154.143204 150.572662,143.323502 
	C151.027603,141.458328 152.314056,139.795975 153.485916,137.812805 
	C153.229477,141.314789 153.042038,145.131424 152.105484,148.754379 
	C150.289719,155.778412 147.900269,162.653870 146.071930,169.675095 
	C145.422424,172.169296 145.892548,174.932663 145.539154,177.530670 
	C144.601379,184.424759 144.385864,191.588943 142.244186,198.107224 
	C139.012589,207.942657 134.469803,217.356079 130.303802,226.869843 
	C129.182297,229.430969 127.452850,231.735153 125.923965,234.106659 
	C123.070442,238.532852 120.344902,243.058853 117.222572,247.289810 
	C113.772156,251.965363 113.737518,253.397247 118.683945,256.584625 
	C115.626328,259.044006 112.738533,261.366791 109.557602,263.802063 
z"/>
<path fill="#F89E5E" opacity="1.000000" stroke="none" 
	d="
M179.648468,240.182632 
	C175.542480,244.496078 170.966721,248.686096 166.555435,253.042664 
	C165.419373,254.164597 164.393997,255.710602 164.019852,257.234161 
	C162.849609,261.999817 160.349014,262.579132 156.179077,259.979553 
	C156.080917,259.122528 156.343079,258.391388 156.696594,257.388245 
	C161.389679,247.643463 168.182358,241.065201 179.648468,240.182632 
z"/>
<path fill="#F89E5E" opacity="1.000000" stroke="none" 
	d="
M191.773926,242.725006 
	C188.775406,242.267487 185.568802,241.519043 182.161743,240.487335 
	C185.162811,240.947418 188.364349,241.690735 191.773926,242.725006 
z"/>
<path fill="#F89E5E" opacity="1.000000" stroke="none" 
	d="
M202.906006,253.672485 
	C201.031219,251.908783 199.100800,249.796341 197.081299,247.354309 
	C198.944931,249.124390 200.897675,251.224045 202.906006,253.672485 
z"/>
<path fill="#E9904C" opacity="1.000000" stroke="none" 
	d="
M176.335022,125.292374 
	C177.839508,127.097656 179.369843,129.241302 180.901611,131.762878 
	C179.389008,129.970795 177.874954,127.800766 176.335022,125.292374 
z"/>
<path fill="#F89E5E" opacity="1.000000" stroke="none" 
	d="
M195.804260,245.736786 
	C194.701294,245.238464 193.445129,244.452621 192.087738,243.344223 
	C193.208008,243.830872 194.429550,244.640076 195.804260,245.736786 
z"/>
<path fill="#E26837" opacity="1.000000" stroke="none" 
	d="
M108.931496,267.731262 
	C108.514275,268.146332 108.120384,268.159149 107.431137,268.204407 
	C107.539520,267.253632 107.943275,266.270355 108.615402,265.107056 
	C108.907455,265.727692 108.931145,266.528351 108.931496,267.731262 
z"/>
<path fill="#FDC593" opacity="1.000000" stroke="none" 
	d="
M195.364700,283.927490 
	C192.815079,280.040863 189.284393,281.017731 185.837173,281.561432 
	C176.734512,282.997131 166.219513,276.271179 165.433899,267.867340 
	C165.121292,264.523224 166.818588,260.991180 168.058563,257.583008 
	C170.593979,262.067871 171.939743,267.095764 174.908966,270.834259 
	C180.301666,277.624176 191.034393,282.242889 197.243317,273.883575 
	C199.581940,270.735016 199.800446,266.011719 200.985443,262.006287 
	C202.780502,262.982178 204.575562,263.958099 206.742767,264.903809 
	C207.352997,265.057526 207.572968,265.261017 207.880890,266.041229 
	C207.996597,268.398163 208.006241,270.197937 208.015884,271.997711 
	C207.973190,272.724518 207.930496,273.451294 207.598846,274.633636 
	C206.657593,275.607391 206.005295,276.125580 205.352982,276.643799 
	C202.135223,279.037201 198.917450,281.430573 195.364700,283.927490 
z"/>
<path fill="#FDDAB2" opacity="1.000000" stroke="none" 
	d="
M208.306213,271.788513 
	C208.006241,270.197937 207.996597,268.398163 208.003052,266.230042 
	C210.910217,266.669983 213.801300,267.478271 216.891418,268.590881 
	C214.259155,269.789917 211.427856,270.684601 208.306213,271.788513 
z"/>
<path fill="#EF722A" opacity="1.000000" stroke="none" 
	d="
M188.510315,126.509705 
	C188.489029,126.517937 188.531586,126.501465 188.510315,126.509705 
z"/>
<path fill="#F3AD74" opacity="1.000000" stroke="none" 
	d="
M153.830750,262.063049 
	C153.843033,262.234222 153.608887,262.474670 153.128510,262.784882 
	C153.116287,262.613861 153.350296,262.373077 153.830750,262.063049 
z"/>
<path fill="#FDDAB2" opacity="1.000000" stroke="none" 
	d="
M205.226227,276.995850 
	C206.005295,276.125580 206.657593,275.607391 207.553772,274.994965 
	C206.490036,276.948822 205.182434,278.996918 203.527664,281.103394 
	C203.820160,279.890503 204.459808,278.619171 205.226227,276.995850 
z"/>
<path fill="#F5E3CF" opacity="1.000000" stroke="none" 
	d="
M173.736328,290.984558 
	C172.676697,290.798340 171.407272,290.352753 170.008316,289.658997 
	C171.094696,289.848938 172.310623,290.287079 173.736328,290.984558 
z"/>
<path fill="#E1AD7B" opacity="1.000000" stroke="none" 
	d="
M157.004272,272.313721 
	C157.931519,273.555634 158.877045,275.166901 159.873535,277.161987 
	C158.957184,275.924896 157.989883,274.304016 157.004272,272.313721 
z"/>
<path fill="#FDDAB2" opacity="1.000000" stroke="none" 
	d="
M200.950989,261.649261 
	C199.800446,266.011719 199.581940,270.735016 197.243317,273.883575 
	C191.034393,282.242889 180.301666,277.624176 174.908966,270.834259 
	C171.939743,267.095764 170.593979,262.067871 168.319550,257.330933 
	C171.118500,254.638550 174.114136,252.236557 177.946457,249.848969 
	C181.912231,249.803955 185.041351,249.744553 188.170456,249.685150 
	C191.233627,251.359695 194.296799,253.034241 197.691956,255.223938 
	C198.931885,256.875183 199.839859,258.011322 200.747833,259.147430 
	C200.804062,259.862366 200.860306,260.577301 200.950989,261.649261 
z"/>
<path fill="#FDC593" opacity="1.000000" stroke="none" 
	d="
M187.928955,249.411285 
	C185.041351,249.744553 181.912231,249.803955 178.314621,249.803055 
	C180.968521,246.971603 184.294754,247.514160 187.928955,249.411285 
z"/>
<path fill="#FDC593" opacity="1.000000" stroke="none" 
	d="
M200.738724,258.815247 
	C199.839859,258.011322 198.931885,256.875183 197.975449,255.406433 
	C198.861191,256.210205 199.795395,257.346649 200.738724,258.815247 
z"/>
</svg>